<?xml version="1.0" standalone="no"?>
<!DOCTYPE svg PUBLIC "-//W3C//DTD SVG 20010904//EN"
 "http://www.w3.org/TR/2001/REC-SVG-20010904/DTD/svg10.dtd">
<svg version="1.0" xmlns="http://www.w3.org/2000/svg"
 width="450.000000pt" height="450.000000pt" viewBox="0 0 450.000000 450.000000"
 preserveAspectRatio="xMidYMid meet">

<g transform="translate(0.000000,450.000000) scale(0.100000,-0.100000)"
fill="#000000" stroke="none">
<path d="M1815 3247 c-231 -162 -503 -352 -605 -423 l-185 -129 -3 -855 c-2
-795 -1 -856 15 -867 13 -10 272 -13 1213 -13 941 0 1200 3 1213 13 16 11 17
72 15 867 l-3 855 -185 129 c-102 71 -372 260 -600 419 -228 160 -424 292
-435 294 -14 2 -156 -91 -440 -290z m991 -202 c296 -206 540 -380 542 -384 3
-9 -1086 -1021 -1098 -1021 -12 0 -1101 1012 -1098 1021 6 16 1093 769 1104
765 6 -2 254 -174 550 -381z m-1658 -521 c15 -14 215 -199 444 -412 230 -212
416 -387 415 -388 -149 -106 -871 -606 -882 -610 -13 -6 -15 72 -15 715 0 397
2 721 5 721 3 0 18 -12 33 -26z m2242 -695 c0 -643 -2 -721 -15 -715 -11 4
-780 536 -882 611 -2 0 185 175 415 387 229 213 428 398 442 412 14 13 28 25
33 25 4 1 7 -323 7 -720z m-1234 -239 c41 -39 83 -70 94 -70 11 0 53 32 94 70
l74 71 424 -296 c232 -162 424 -298 426 -303 1 -4 -457 -7 -1018 -7 -561 0
-1019 3 -1017 7 2 7 836 596 846 597 2 1 37 -30 77 -69z"/>
<path d="M2155 3028 c-164 -31 -304 -170 -356 -353 -21 -74 -18 -227 5 -298
40 -121 148 -227 269 -262 132 -38 293 -38 410 1 68 22 162 88 203 143 l36 46
-42 3 c-37 3 -46 -1 -95 -47 -74 -67 -143 -92 -270 -99 -168 -8 -294 34 -373
123 -62 70 -85 140 -85 255 0 105 22 179 74 256 157 230 537 225 661 -9 19
-35 23 -58 23 -132 0 -78 -4 -97 -27 -141 -59 -112 -188 -178 -188 -97 0 15
18 110 40 211 22 100 40 184 40 187 0 3 -20 5 -44 5 -42 0 -44 -1 -51 -36 l-6
-36 -35 34 c-45 46 -100 63 -156 47 -91 -24 -166 -103 -202 -212 -53 -158 31
-317 167 -317 35 0 56 8 96 35 l51 36 10 -25 c12 -33 39 -46 94 -46 64 0 127
33 185 96 60 65 90 126 101 201 21 155 -57 314 -189 387 -91 49 -229 67 -346
44z m134 -283 c32 -16 61 -77 61 -128 0 -116 -97 -247 -183 -247 -53 0 -107
72 -107 142 0 115 87 248 164 248 20 0 50 -7 65 -15z"/>
</g>
</svg>
