<?xml version="1.0" standalone="no"?>
<!DOCTYPE svg PUBLIC "-//W3C//DTD SVG 20010904//EN"
 "http://www.w3.org/TR/2001/REC-SVG-20010904/DTD/svg10.dtd">
<svg version="1.0" xmlns="http://www.w3.org/2000/svg"
 width="546.000000pt" height="191.000000pt" viewBox="0 0 546.000000 191.000000"
 preserveAspectRatio="xMidYMid meet">

<g transform="translate(0.000000,191.000000) scale(0.100000,-0.100000)"
fill="#000000" stroke="none">
<path d="M495 1725 c-126 -73 -245 -145 -263 -160 l-32 -27 0 -551 c1 -428 3
-556 13 -569 7 -9 53 -40 102 -68 200 -116 417 -240 421 -240 2 0 4 37 4 83 0
73 -2 84 -21 95 -12 8 -99 59 -195 114 l-174 100 0 482 0 482 195 113 195 113
0 84 c0 46 -3 84 -7 83 -5 0 -111 -61 -238 -134z"/>
<path d="M1220 1776 l0 -84 138 -80 c75 -43 163 -94 195 -113 l57 -33 0 -482
0 -482 -195 -112 -195 -112 0 -84 c0 -46 2 -84 4 -84 5 0 240 134 388 221 68
40 128 80 135 88 18 23 18 1109 0 1132 -10 13 -511 309 -523 309 -2 0 -4 -38
-4 -84z"/>
<path d="M590 1338 l0 -83 78 -40 77 -40 0 -190 0 -190 -77 -40 -78 -40 0 -82
c0 -46 4 -83 8 -83 15 0 237 113 270 137 l32 24 0 273 c0 270 0 273 -22 292
-20 18 -268 144 -283 144 -3 0 -5 -37 -5 -82z"/>
<path d="M1226 1354 c-72 -35 -138 -72 -148 -81 -17 -15 -18 -39 -18 -288 0
-269 0 -272 23 -292 21 -20 262 -143 279 -143 4 0 8 37 8 83 l0 82 -78 40 -77
40 0 190 0 190 77 40 78 40 0 83 c0 45 -3 82 -7 81 -5 0 -66 -29 -137 -65z"/>
<path d="M2654 1161 c-91 -42 -140 -141 -120 -246 8 -41 19 -60 61 -102 43
-42 60 -53 99 -58 75 -12 130 -1 177 34 53 38 60 39 57 3 -2 -32 9 -55 23 -47
5 4 9 99 9 221 0 184 -2 214 -15 214 -16 0 -18 -9 -15 -47 2 -28 -10 -29 -41
-4 -70 54 -159 67 -235 32z m173 -37 c70 -34 115 -130 93 -200 -16 -51 -54
-100 -90 -119 -37 -19 -132 -19 -168 -1 -29 15 -59 47 -79 83 -21 37 -16 127
8 167 45 76 154 108 236 70z"/>
<path d="M3012 963 c3 -186 5 -218 18 -218 13 0 16 31 20 200 l5 200 117 0
c109 0 118 -1 142 -24 17 -16 26 -35 26 -56 0 -63 -61 -94 -161 -82 -36 4 -49
3 -49 -7 0 -18 224 -236 243 -236 31 0 17 22 -70 111 l-87 89 36 0 c43 0 98
35 117 75 22 46 4 114 -38 142 -31 21 -45 23 -178 23 l-143 0 2 -217z"/>
<path d="M3434 1167 c-3 -8 -4 -89 -2 -178 3 -150 5 -167 25 -195 29 -41 82
-57 131 -40 41 14 85 69 80 100 -5 32 -26 29 -41 -6 -18 -43 -39 -59 -78 -60
-48 -2 -79 39 -79 102 l0 49 97 3 c83 3 98 6 101 20 3 15 -8 18 -95 20 l-98 3
-5 94 c-3 63 -9 96 -17 99 -7 2 -16 -3 -19 -11z"/>
<path d="M3714 1169 c-8 -14 21 -43 35 -35 6 4 11 16 11 27 0 21 -34 27 -46 8z"/>
<path d="M3810 966 l0 -214 40 -7 c46 -8 80 1 80 20 0 13 -28 27 -46 24 -33
-6 -34 1 -34 196 0 188 -1 195 -20 195 -19 0 -20 -7 -20 -214z"/>
<path d="M3980 965 c0 -118 3 -215 8 -216 4 0 30 -1 57 -2 44 -1 50 1 50 18 0
16 -7 20 -30 20 -56 0 -56 2 -55 193 2 219 3 202 -15 202 -13 0 -15 -31 -15
-215z"/>
<path d="M4235 1161 c-55 -24 -101 -80 -120 -143 -14 -47 -14 -57 1 -108 32
-112 141 -180 254 -157 48 10 124 56 134 82 10 28 -23 29 -52 3 -42 -39 -66
-48 -130 -48 -45 0 -67 5 -93 23 -38 26 -79 81 -79 108 0 17 14 19 193 21
l192 3 3 37 c5 63 -47 142 -120 179 -48 24 -130 25 -183 0z m201 -56 c35 -27
69 -89 60 -111 -8 -22 -334 -21 -343 2 -9 24 28 84 69 111 70 47 151 46 214
-2z"/>
<path d="M4592 963 c3 -186 5 -218 18 -218 13 0 16 31 20 200 l5 200 117 0
c109 0 118 -1 142 -24 47 -44 25 -121 -40 -137 -13 -4 -52 -4 -84 -2 -41 3
-60 1 -60 -7 0 -18 226 -235 244 -235 31 0 15 26 -71 112 l-88 88 36 0 c42 0
97 34 117 70 7 15 11 44 8 70 -3 36 -11 50 -37 72 -33 28 -34 28 -181 28
l-148 0 2 -217z"/>
<path d="M4990 1171 c0 -5 31 -51 70 -102 l69 -93 3 -115 c2 -95 6 -116 18
-116 12 0 16 22 20 115 l5 116 65 87 c36 48 68 87 73 87 4 0 7 7 7 15 0 34
-41 13 -82 -42 -55 -73 -80 -103 -88 -103 -3 0 -32 36 -64 80 -37 52 -65 80
-77 80 -10 0 -19 -4 -19 -9z"/>
<path d="M3725 1098 c-3 -8 -4 -90 -3 -183 3 -143 5 -170 18 -170 13 0 15 27
15 179 0 135 -3 180 -12 183 -7 3 -15 -2 -18 -9z"/>
</g>
</svg>
