<?xml version="1.0" standalone="no"?>
<!DOCTYPE svg PUBLIC "-//W3C//DTD SVG 20010904//EN"
 "http://www.w3.org/TR/2001/REC-SVG-20010904/DTD/svg10.dtd">
<svg version="1.0" xmlns="http://www.w3.org/2000/svg"
 width="1331.000000pt" height="305.000000pt" viewBox="0 0 1331.000000 305.000000"
 preserveAspectRatio="xMidYMid meet">

<g transform="translate(0.000000,305.000000) scale(0.100000,-0.100000)"
fill="#000000" stroke="none">
<path d="M1438 2250 c-291 -35 -539 -248 -618 -531 -41 -151 -36 -295 17 -442
38 -107 89 -185 177 -272 90 -89 186 -146 316 -187 74 -23 79 -23 560 -23
l485 0 0 140 0 140 -475 5 c-403 4 -481 7 -517 21 -226 87 -346 310 -287 534
37 145 153 264 307 318 21 7 197 13 502 16 l470 6 0 140 0 140 -435 1 c-239 1
-465 -2 -502 -6z"/>
<path d="M2555 2248 c-3 -7 -4 -337 -3 -733 l3 -720 140 0 140 0 3 588 2 588
424 -3 c411 -3 425 -4 452 -24 50 -37 68 -70 68 -124 0 -56 -20 -91 -74 -127
-33 -23 -35 -23 -426 -23 -278 0 -395 -3 -400 -11 -4 -7 169 -187 422 -440
l429 -429 192 0 c147 0 193 3 193 12 0 7 -127 140 -282 295 l-283 283 57 0
c186 0 345 97 421 257 30 64 32 74 32 183 0 111 -1 118 -34 185 -60 122 -163
205 -298 240 -78 20 -1171 23 -1178 3z"/>
<path d="M4823 2249 c-28 -5 -87 -22 -131 -38 -388 -141 -582 -581 -426 -965
70 -172 228 -330 400 -400 129 -53 181 -57 664 -54 l445 3 0 140 0 140 -470 5
-470 5 -76 36 c-91 44 -161 110 -207 197 l-33 62 628 2 628 3 0 140 0 140
-628 3 -627 2 24 48 c52 102 138 181 244 224 56 23 65 23 522 28 l465 5 0 140
0 140 -450 1 c-247 1 -473 -2 -502 -7z"/>
<path d="M6327 1536 c-229 -399 -417 -730 -417 -736 0 -7 51 -10 161 -8 l161
3 257 444 c141 245 261 446 266 448 8 2 339 -558 353 -598 2 -5 -93 -9 -230
-9 l-234 0 -77 -135 c-42 -74 -77 -139 -77 -145 0 -7 184 -10 556 -10 537 0
556 1 551 19 -9 36 -829 1451 -841 1451 -6 0 -199 -326 -429 -724z"/>
<path d="M7740 1582 l0 -679 23 -33 c12 -18 35 -43 50 -54 28 -21 38 -21 588
-24 l560 -2 -3 142 -3 143 -467 3 -468 2 -2 588 -3 587 -137 3 -138 3 0 -679z"/>
<path d="M9125 2248 c-3 -7 -4 -337 -3 -733 l3 -720 140 0 140 0 0 730 0 730
-138 3 c-104 2 -139 -1 -142 -10z"/>
<path d="M9547 2253 c-4 -3 -7 -69 -7 -145 l0 -138 295 0 295 0 0 -590 0 -591
143 3 142 3 3 588 2 587 290 0 289 0 248 -296 248 -296 5 -291 5 -292 140 0
140 0 3 290 2 290 360 430 c198 237 360 436 360 443 0 9 -42 12 -177 12 l-178
0 -250 -300 c-137 -165 -255 -300 -261 -300 -6 0 -98 105 -205 233 -107 127
-220 262 -252 300 l-58 67 -788 0 c-433 0 -791 -3 -794 -7z"/>
</g>
</svg>
