<?xml version="1.0" standalone="no"?>
<!DOCTYPE svg PUBLIC "-//W3C//DTD SVG 20010904//EN"
 "http://www.w3.org/TR/2001/REC-SVG-20010904/DTD/svg10.dtd">
<svg version="1.0" xmlns="http://www.w3.org/2000/svg"
 width="758.000000pt" height="464.000000pt" viewBox="0 0 758.000000 464.000000"
 preserveAspectRatio="xMidYMid meet">

<g transform="translate(0.000000,464.000000) scale(0.100000,-0.100000)"
fill="#000000" stroke="none">
<path d="M5224 4629 c-3 -5 -15 -9 -27 -9 -27 0 -90 -6 -97 -10 -3 -1 -8 -2
-12 -1 -5 0 -8 -3 -8 -8 0 -4 -16 -7 -35 -5 -24 1 -38 -3 -45 -14 -5 -9 -10
-13 -10 -8 0 5 -7 3 -15 -4 -8 -6 -19 -9 -25 -5 -6 4 -17 2 -24 -4 -8 -7 -18
-11 -22 -10 -24 4 -55 -2 -50 -10 4 -5 -3 -7 -14 -4 -11 3 -20 1 -20 -3 0 -5
-10 -10 -22 -10 -13 -1 -34 -5 -48 -8 -14 -4 -34 -9 -45 -11 -11 -2 -30 -6
-42 -9 -24 -6 -56 -14 -83 -21 -8 -2 -17 -4 -20 -6 -3 -1 -18 -3 -35 -4 -16
-2 -32 -3 -35 -5 -7 -2 -81 -9 -108 -10 -13 0 -21 -4 -18 -8 2 -4 -16 -9 -42
-11 -92 -6 -383 -3 -400 4 -17 8 -46 14 -72 16 -8 1 -20 6 -27 11 -7 5 -17 7
-23 3 -6 -4 -18 -1 -27 7 -14 11 -16 11 -8 -1 6 -11 5 -12 -6 -5 -8 4 -20 10
-26 11 -7 2 -19 4 -25 6 -7 1 -19 7 -27 11 -10 7 -12 6 -6 -4 6 -10 4 -11 -6
-4 -8 4 -18 10 -24 11 -5 1 -28 7 -49 12 -22 5 -44 8 -48 5 -4 -3 -8 0 -8 5 0
6 -10 11 -22 11 -13 0 -47 1 -75 4 -29 2 -55 0 -59 -5 -3 -5 -10 -7 -15 -4 -5
4 -9 1 -9 -5 0 -6 -12 -15 -26 -20 -19 -8 -25 -16 -21 -30 3 -11 2 -20 -2 -20
-4 0 -7 -24 -6 -52 1 -29 -3 -59 -8 -65 -5 -7 -6 -20 -3 -29 3 -9 3 -21 -1
-27 -10 -16 -14 -36 -14 -70 0 -16 -5 -25 -10 -21 -6 3 -10 -2 -9 -12 1 -11 1
-21 0 -24 -1 -3 -3 -16 -4 -30 -1 -14 -6 -31 -10 -39 -5 -8 -11 -26 -13 -40
-2 -14 -6 -37 -8 -51 -2 -14 -6 -34 -8 -45 -1 -11 -5 -25 -9 -30 -3 -6 -4 -20
-3 -32 1 -13 -1 -23 -4 -23 -4 0 -7 -49 -8 -110 -1 -63 2 -110 7 -110 5 0 8
-13 6 -30 -2 -16 1 -30 6 -30 5 0 7 -4 3 -9 -3 -5 -1 -12 4 -15 5 -3 7 -16 3
-28 -3 -14 -1 -19 6 -14 8 4 10 2 6 -7 -3 -8 0 -18 5 -22 6 -3 9 -11 6 -16 -4
-5 -2 -9 2 -9 5 0 10 -10 10 -22 1 -13 7 -24 13 -26 5 -2 7 -8 4 -13 -3 -6 0
-16 6 -24 6 -8 9 -19 5 -25 -3 -5 -1 -10 5 -10 6 0 9 -4 5 -9 -3 -5 -1 -12 4
-15 5 -3 7 -15 4 -26 -3 -12 0 -20 7 -20 7 0 9 -8 5 -21 -5 -14 -3 -19 3 -15
6 4 8 -2 4 -16 -3 -13 -1 -19 5 -15 7 5 9 0 6 -13 -3 -11 0 -26 6 -33 6 -8 8
-17 4 -20 -3 -4 -2 -7 3 -7 6 0 9 -13 8 -30 -1 -16 2 -30 8 -30 5 0 7 -4 3 -9
-3 -5 -1 -12 4 -16 5 -3 10 -13 10 -23 1 -37 5 -52 12 -52 4 0 6 -8 4 -17 -1
-10 0 -22 4 -28 8 -14 11 -35 12 -73 1 -17 5 -35 10 -38 5 -3 7 -18 4 -35 -3
-16 -1 -29 4 -29 5 0 8 -11 5 -25 -2 -14 0 -25 4 -25 5 0 8 -20 7 -45 -2 -25
1 -48 6 -50 4 -3 6 -19 3 -34 -4 -16 -1 -32 5 -35 6 -4 9 -12 6 -17 -4 -5 1
-12 9 -15 9 -3 14 -10 11 -15 -3 -4 5 -13 17 -20 13 -7 23 -11 23 -10 0 2 12
-3 28 -10 15 -7 27 -16 27 -21 0 -5 5 -6 10 -3 6 4 22 -1 36 -10 13 -9 29 -13
33 -10 5 3 16 -2 25 -11 9 -9 24 -13 35 -9 10 3 24 -1 31 -10 8 -9 20 -13 33
-9 14 4 17 3 12 -6 -5 -9 -2 -10 14 -5 13 4 21 2 21 -5 0 -7 8 -10 20 -7 10 3
25 -1 31 -9 7 -8 20 -12 30 -9 11 4 19 2 19 -4 0 -5 11 -8 24 -5 14 2 28 0 31
-6 4 -6 11 -8 16 -4 5 3 17 0 26 -8 14 -11 16 -11 9 1 -7 10 -3 10 15 -2 13
-8 36 -13 51 -12 15 1 25 -2 21 -8 -3 -5 7 -6 27 -2 24 5 31 4 25 -5 -5 -9 -2
-10 14 -5 11 3 26 3 33 -1 6 -4 28 -8 47 -9 20 -1 44 -5 53 -9 9 -4 43 -5 75
-2 32 4 71 6 86 6 16 0 26 4 23 9 -3 5 3 7 14 4 11 -3 20 -1 20 5 0 6 13 8 31
5 20 -3 29 -1 25 6 -4 6 1 8 13 6 10 -2 31 3 45 10 17 9 24 10 20 3 -4 -7 8
-2 28 10 19 12 37 19 41 16 3 -3 16 2 29 10 14 9 28 13 31 9 4 -3 7 -1 7 6 0
8 7 10 21 6 16 -5 19 -4 14 5 -5 9 -1 10 15 5 15 -5 20 -4 16 4 -4 6 0 12 11
13 10 0 23 2 29 2 6 1 18 7 26 14 8 6 18 9 22 5 3 -4 13 2 21 13 8 10 15 15
15 10 0 -5 8 -2 17 5 9 8 14 9 10 2 -5 -8 0 -9 22 0 17 6 28 14 25 18 -2 4 3
10 12 13 9 4 13 2 8 -5 -3 -6 5 -4 18 5 14 9 28 13 31 9 4 -3 7 -2 7 4 0 6 14
13 32 17 17 3 40 14 50 23 10 9 27 17 38 18 10 1 29 10 41 21 11 10 23 18 25
17 11 -7 35 -2 30 6 -3 5 1 12 10 15 8 3 12 2 9 -4 -3 -6 1 -7 9 -4 9 3 13 11
10 16 -4 6 2 7 16 3 15 -5 20 -4 16 4 -5 7 3 11 23 11 28 0 43 11 47 35 1 6 9
28 16 50 10 28 13 75 11 160 -4 146 -4 145 -16 145 -6 0 -7 3 -4 7 4 3 1 13
-6 21 -10 13 -9 14 1 8 11 -7 12 -4 3 13 -7 11 -9 21 -5 21 3 0 1 6 -5 13 -6
8 -8 17 -4 20 3 4 1 13 -5 20 -7 8 -9 17 -5 20 3 4 2 7 -4 7 -6 0 -9 9 -6 20
3 11 1 26 -5 33 -5 6 -8 20 -7 30 2 9 0 17 -5 17 -4 0 -11 7 -14 16 -4 9 -2
13 5 8 8 -5 8 -1 0 13 -6 11 -7 23 -4 27 3 3 2 6 -4 6 -9 0 -13 13 -14 53 0 9
-5 17 -10 17 -6 0 -8 4 -4 9 3 5 1 12 -5 16 -5 3 -7 18 -4 32 5 18 3 24 -4 19
-7 -4 -9 1 -7 15 3 12 1 27 -2 33 -4 6 -8 17 -9 26 -4 26 -9 45 -15 55 -4 6
-5 18 -4 28 2 9 -2 17 -8 17 -5 0 -7 3 -4 7 4 3 1 13 -6 21 -10 13 -9 14 3 7
13 -8 13 -6 1 8 -7 9 -11 23 -8 31 3 8 3 17 -1 20 -7 7 -13 59 -15 129 0 26
-5 47 -10 47 -9 0 -8 108 2 125 7 13 12 34 13 62 0 13 5 20 10 17 6 -4 7 2 3
15 -4 13 -2 21 5 21 6 0 8 5 5 10 -3 6 -1 10 5 10 7 0 9 7 6 16 -3 8 -2 13 3
10 11 -7 23 22 15 35 -3 5 2 12 10 15 9 3 14 10 11 14 -3 5 1 15 9 23 8 8 12
18 8 22 -4 3 2 13 12 21 11 8 16 14 11 14 -4 0 0 9 9 19 10 11 15 25 11 30 -3
6 1 14 9 17 9 3 14 10 11 14 -3 5 1 14 8 22 8 7 12 19 9 26 -2 6 3 15 12 18 9
3 13 10 10 15 -3 5 0 9 5 9 6 0 10 3 10 8 -1 4 0 9 1 12 8 21 7 39 -3 33 -7
-4 -8 0 -4 11 4 10 3 15 -3 11 -6 -4 -17 1 -26 9 -9 9 -19 14 -24 11 -5 -3
-11 -1 -15 5 -4 6 -11 8 -16 4 -5 -3 -15 -1 -22 4 -15 12 -195 13 -203 1z"/>
<path d="M5675 4570 c-4 -6 -11 -8 -16 -5 -5 4 -9 1 -9 -5 0 -6 -5 -8 -10 -5
-6 4 -9 2 -8 -4 2 -5 -13 -24 -32 -41 -19 -17 -28 -28 -20 -25 9 4 7 0 -4 -9
-10 -8 -19 -26 -20 -40 0 -13 -5 -24 -11 -23 -5 1 -9 -6 -9 -15 1 -10 -3 -18
-8 -18 -6 0 -7 -7 -4 -16 3 -8 2 -12 -4 -9 -10 6 -14 -7 -11 -32 1 -7 -3 -13
-9 -13 -6 0 -8 -4 -5 -10 3 -5 1 -10 -5 -10 -7 0 -9 -7 -6 -16 4 -10 2 -13 -6
-8 -8 5 -9 2 -5 -10 5 -11 3 -15 -5 -10 -8 5 -9 2 -5 -9 3 -9 1 -19 -5 -23 -7
-5 -8 -2 -3 6 5 9 4 11 -4 6 -7 -4 -10 -13 -8 -19 3 -7 -4 -27 -15 -44 -11
-18 -16 -38 -12 -44 4 -8 3 -9 -4 -5 -7 4 -13 4 -13 -1 -1 -4 -3 -17 -5 -28
-5 -35 -13 -65 -20 -76 -3 -6 -1 -15 6 -19 9 -6 9 -12 0 -29 -8 -15 -8 -26 -1
-35 5 -6 11 -39 12 -71 2 -33 5 -64 8 -70 6 -11 13 -53 12 -77 0 -10 5 -18 11
-18 6 0 8 -3 5 -6 -3 -4 -2 -16 4 -27 7 -12 7 -17 1 -13 -6 4 -8 -2 -5 -14 3
-11 9 -20 13 -20 5 0 7 -8 5 -17 -1 -10 1 -22 5 -28 7 -9 10 -27 11 -67 0 -10
4 -18 9 -18 5 0 9 -9 9 -20 1 -11 1 -29 2 -40 0 -11 5 -22 10 -25 5 -4 7 -11
3 -16 -3 -6 2 -20 13 -31 12 -14 13 -18 3 -13 -12 7 -13 6 -3 -7 7 -8 10 -18
6 -21 -3 -4 -1 -7 5 -7 6 0 9 -9 7 -20 -2 -11 0 -20 6 -20 5 0 8 -3 8 -7 -1
-5 0 -10 1 -13 1 -3 3 -16 5 -30 8 -64 15 -94 23 -99 5 -3 8 -14 6 -23 -1 -10
1 -18 4 -18 7 0 11 -33 13 -107 1 -18 4 -33 8 -33 3 0 6 -40 6 -90 0 -49 -3
-90 -8 -90 -4 0 -5 -13 -2 -29 3 -19 0 -33 -10 -41 -10 -8 -13 -21 -9 -33 5
-15 3 -17 -7 -11 -12 6 -12 5 0 -9 7 -9 25 -23 40 -30 14 -7 25 -19 23 -26 -1
-7 2 -10 7 -6 6 3 15 -4 21 -15 6 -11 14 -19 18 -19 19 3 51 -14 45 -24 -4 -6
0 -8 10 -4 10 4 16 2 14 -6 -1 -7 4 -11 11 -9 6 1 12 -3 12 -9 0 -5 4 -8 9 -5
5 3 14 -1 21 -9 7 -8 16 -13 20 -10 4 3 11 -2 14 -11 3 -8 10 -13 15 -10 4 3
16 -3 26 -14 10 -11 21 -17 26 -15 4 3 23 -3 42 -14 62 -35 72 -39 113 -55 23
-8 44 -13 47 -10 3 3 16 -2 29 -10 14 -9 28 -13 31 -9 4 3 7 1 7 -5 0 -6 11
-9 26 -6 14 3 23 1 20 -4 -3 -5 8 -8 24 -7 16 1 27 -1 24 -6 -3 -5 6 -8 21 -7
17 2 29 11 37 29 7 15 16 25 20 23 4 -3 8 -1 8 4 0 5 11 26 25 46 14 21 20 34
13 31 -7 -4 -6 -1 2 7 21 18 69 83 72 98 2 7 12 22 23 35 39 42 51 61 48 72
-2 6 11 23 29 38 18 16 32 32 30 37 -1 4 4 7 10 6 7 -2 12 5 10 15 -2 11 4 17
17 17 11 0 23 5 27 12 5 7 2 9 -7 4 -8 -4 -6 -1 3 7 10 8 14 18 10 22 -4 5 -2
5 5 1 6 -3 21 7 33 24 12 16 27 30 35 30 12 0 52 46 53 60 0 3 3 16 6 30 3 14
7 34 9 45 1 11 6 25 9 31 6 9 4 43 -2 52 -2 1 -4 11 -5 22 -1 11 -4 22 -5 25
-4 8 -7 24 -9 41 0 8 -4 13 -8 11 -5 -3 -9 7 -10 21 0 14 -8 31 -17 38 -9 6
-16 16 -16 21 0 6 -10 23 -22 39 -13 15 -16 24 -8 19 13 -8 13 -6 1 8 -7 9
-10 17 -5 17 5 0 2 5 -8 10 -10 7 -14 17 -10 32 3 14 1 19 -6 14 -8 -4 -10 -2
-6 8 3 8 0 25 -8 38 -7 13 -14 28 -14 33 -1 6 -3 12 -4 15 -1 3 -3 19 -6 35
-5 46 -10 69 -16 85 -4 8 -6 22 -6 30 0 8 -4 26 -7 40 -4 14 -7 37 -7 53 1 15
-3 27 -7 27 -5 0 -9 12 -9 28 0 15 -3 38 -6 52 -4 14 -9 35 -11 46 -3 12 -12
37 -20 56 -8 20 -11 38 -8 41 3 4 -1 9 -9 12 -7 3 -14 18 -13 33 l0 27 90 3
c50 2 105 4 123 4 17 1 32 4 32 8 0 3 17 6 38 7 50 2 85 7 97 14 9 5 140 5
140 0 0 -3 28 -10 55 -15 67 -13 109 -41 110 -73 0 -10 33 -34 50 -37 3 -1 4
-3 3 -6 -1 -3 11 -6 25 -7 15 -2 55 -5 90 -9 36 -3 68 -2 75 4 6 5 22 8 35 6
14 -3 21 0 17 6 -3 5 -1 11 4 11 6 1 16 2 21 3 6 0 9 6 8 11 -2 6 -6 9 -10 7
-5 -1 -8 3 -8 9 0 5 -5 7 -11 3 -6 -4 -29 13 -51 37 -22 24 -37 37 -33 29 5
-8 -9 2 -29 23 -22 22 -44 36 -52 33 -8 -3 -17 1 -20 8 -4 11 -20 13 -65 9
-50 -5 -62 -3 -73 12 -8 11 -19 16 -30 12 -11 -5 -15 -3 -10 5 5 8 2 9 -9 5
-9 -3 -19 -2 -22 4 -4 5 -11 7 -16 3 -5 -3 -16 0 -24 6 -8 6 -19 9 -25 5 -5
-3 -16 -3 -22 1 -16 10 -158 11 -158 2 0 -4 -13 -6 -30 -4 -16 2 -30 1 -30 -3
0 -3 -53 -5 -118 -4 -144 3 -152 4 -152 16 0 5 -7 7 -15 3 -8 -3 -15 -1 -15 4
0 6 -7 10 -16 10 -8 0 -12 5 -9 10 3 6 -1 10 -11 10 -9 0 -23 8 -30 18 -7 9
-18 17 -26 17 -7 1 -12 6 -10 13 1 7 -5 15 -13 18 -8 3 -12 10 -9 15 3 5 0 9
-6 9 -6 0 -9 4 -6 9 3 5 -8 14 -24 20 -17 5 -30 14 -30 19 0 12 -76 53 -84 45
-3 -3 -6 -1 -6 6 0 7 -8 11 -17 9 -10 -1 -24 1 -30 5 -7 5 -13 5 -13 1 0 -3
-12 1 -26 11 -18 11 -24 12 -18 4 6 -12 5 -12 -9 0 -9 7 -17 10 -17 6 0 -4 -6
-2 -13 4 -8 6 -17 8 -20 4 -4 -3 -7 -1 -7 6 0 8 -8 11 -20 8 -11 -3 -18 -1
-14 4 5 8 0 10 -38 13 -7 1 -18 7 -24 15 -6 8 -16 11 -22 7 -13 -8 -44 3 -37
15 3 4 -4 6 -15 4 -12 -2 -23 2 -27 11 -3 8 -10 14 -17 13 -24 -3 -37 1 -32
10 4 5 -5 8 -19 7 -14 -2 -29 2 -35 9 -12 14 -77 18 -85 5z"/>
<path d="M3160 4528 c0 -5 -9 -7 -19 -3 -11 3 -22 1 -26 -5 -4 -6 -14 -9 -22
-6 -9 4 -11 2 -7 -6 5 -8 2 -9 -10 -5 -11 5 -15 3 -10 -5 5 -8 2 -9 -10 -5
-10 4 -15 3 -11 -3 3 -6 -3 -10 -13 -10 -11 0 -25 -7 -32 -15 -7 -9 -15 -13
-17 -11 -3 2 -28 -9 -56 -26 -29 -17 -60 -31 -70 -30 -9 0 -15 -3 -12 -9 5 -8
-18 -13 -29 -6 -2 1 -12 -5 -22 -14 -11 -9 -27 -15 -36 -14 -10 2 -18 -1 -18
-6 0 -5 -5 -9 -12 -9 -6 0 -20 -8 -31 -17 -15 -13 -18 -14 -12 -3 7 12 4 11
-15 -2 -43 -31 -63 -41 -56 -29 5 7 1 9 -8 5 -9 -3 -13 -11 -9 -17 4 -6 0 -8
-11 -4 -9 4 -28 0 -42 -9 -13 -9 -24 -12 -24 -8 0 5 -5 1 -11 -9 -6 -9 -14
-15 -18 -12 -5 2 -14 -2 -21 -10 -7 -8 -17 -15 -23 -15 -5 0 -25 -12 -44 -26
-19 -14 -37 -23 -40 -20 -4 4 -23 -8 -42 -26 -19 -18 -29 -24 -21 -14 14 18
14 18 -7 5 -12 -7 -20 -15 -18 -18 7 -7 -68 -50 -87 -51 -9 0 -18 -3 -20 -7
-8 -19 -159 -106 -198 -115 -8 -2 -20 -10 -27 -18 -7 -8 -13 -11 -13 -6 0 5
-7 3 -15 -4 -8 -7 -15 -9 -15 -4 0 5 -4 4 -8 -1 -11 -16 -66 -49 -57 -34 13
20 -15 0 -62 -45 -30 -29 -43 -49 -43 -69 0 -16 -4 -26 -10 -22 -6 3 -7 -1 -4
-9 3 -9 1 -16 -4 -16 -6 0 -9 -9 -7 -20 2 -11 0 -22 -5 -25 -5 -3 -7 -12 -3
-20 3 -9 0 -22 -6 -29 -13 -15 -15 -292 -3 -311 6 -9 10 -36 12 -98 1 -9 6
-15 11 -11 6 3 7 -5 3 -22 -5 -18 -3 -25 4 -20 7 4 10 -1 7 -14 -2 -11 0 -22
5 -25 5 -3 6 -13 3 -22 -4 -10 -2 -14 4 -10 14 9 24 -18 16 -40 -5 -12 -3 -14
7 -8 10 6 12 4 7 -9 -4 -10 -1 -19 8 -22 8 -4 12 -10 9 -15 -3 -5 0 -9 5 -9 6
0 11 -7 11 -15 0 -18 17 -50 45 -85 17 -21 17 -22 2 -10 -16 11 -15 8 4 -24
12 -21 28 -40 35 -43 8 -3 12 -9 9 -13 -3 -4 2 -13 10 -20 8 -7 12 -16 9 -21
-3 -5 -1 -9 4 -9 4 0 19 -14 31 -31 13 -18 17 -28 10 -24 -8 4 -6 0 4 -11 10
-10 25 -28 33 -39 9 -11 12 -14 8 -6 -4 9 -3 12 4 7 6 -4 9 -13 6 -20 -3 -8 5
-21 18 -30 12 -9 18 -16 13 -16 -6 0 3 -9 19 -19 16 -11 33 -27 38 -36 5 -8
13 -13 18 -10 4 3 21 0 37 -6 33 -13 83 -19 83 -10 0 3 15 7 33 8 55 3 77 7
77 15 0 4 7 4 17 1 10 -4 14 -2 10 4 -4 6 3 8 18 5 14 -2 25 0 25 7 0 6 7 8
17 4 9 -4 14 -2 10 3 -3 5 3 11 14 12 43 4 49 6 49 14 0 5 12 8 28 7 15 -2 32
-1 37 3 6 3 19 3 30 1 11 -2 30 -6 42 -8 39 -6 63 -16 58 -25 -3 -4 2 -11 11
-14 10 -4 13 -2 9 7 -4 6 0 4 8 -5 8 -10 16 -15 19 -13 3 3 11 -2 19 -12 9
-11 10 -14 2 -9 -7 4 -13 5 -13 2 0 -3 22 -17 48 -30 27 -13 54 -32 61 -40 8
-9 18 -16 23 -16 8 0 21 -9 53 -38 8 -7 15 -10 15 -6 0 3 8 0 17 -7 15 -12 16
-12 8 1 -7 12 -5 12 11 -1 31 -26 48 -34 38 -18 -6 11 -3 11 16 -1 30 -19 145
-27 155 -11 3 6 11 9 16 6 5 -4 9 -1 9 5 0 7 6 10 14 7 7 -3 23 1 34 8 10 8
22 11 26 8 3 -3 6 -1 6 5 0 7 6 12 14 12 7 0 21 10 30 23 9 12 14 16 10 8 -5
-9 -3 -12 4 -7 7 4 12 14 12 22 0 9 5 12 12 8 8 -5 9 0 6 14 -4 12 -2 20 3 16
5 -3 9 2 9 10 0 9 -3 16 -7 16 -5 0 -9 16 -10 35 -4 80 -6 90 -13 100 -4 6 -7
25 -5 43 1 17 -1 32 -5 32 -4 0 -5 14 -2 30 2 18 0 30 -7 30 -6 0 -9 13 -7 30
2 17 0 30 -3 30 -4 0 -8 12 -10 28 -4 44 -8 67 -11 67 -1 0 -4 9 -6 20 -1 11
-5 31 -9 45 -3 14 -8 32 -10 40 -2 8 -4 15 -5 15 -1 0 -4 10 -6 23 -2 12 -6
32 -8 45 -2 12 -5 23 -6 25 -2 1 -3 5 -4 10 -1 4 -5 13 -9 20 -5 6 -6 16 -2
21 3 5 1 12 -5 16 -6 4 -8 11 -4 16 3 5 2 15 -3 22 -5 7 -10 21 -10 32 -2 34
-7 49 -23 63 -11 10 -12 12 -1 6 11 -6 11 -2 -2 15 -8 13 -13 30 -10 37 3 8 0
14 -6 14 -6 0 -10 3 -9 8 0 4 -2 15 -5 25 -4 9 -10 25 -14 35 -3 9 -5 23 -4
30 1 6 -3 12 -8 12 -5 0 -10 8 -9 18 0 9 -3 28 -7 42 -4 14 -7 35 -8 48 -1 12
-4 22 -7 22 -6 0 -3 156 5 220 3 25 7 59 9 76 2 17 7 41 12 55 4 13 7 32 5 43
-2 12 1 16 10 10 9 -5 10 -2 6 9 -4 10 -2 17 4 17 7 0 9 10 5 24 -3 12 -3 26
1 30 7 7 14 31 16 59 1 9 6 17 11 17 5 0 7 3 4 6 -4 3 -2 20 4 37 5 18 11 41
13 52 2 11 4 20 5 20 1 0 4 32 6 70 2 39 6 80 9 93 3 12 1 22 -5 22 -6 0 -8 5
-4 12 4 6 3 8 -3 5 -6 -4 -16 -1 -22 7 -13 15 -61 19 -61 4z"/>
<path d="M1567 3747 c4 -6 0 -8 -10 -4 -10 3 -17 2 -17 -4 0 -6 -4 -8 -9 -5
-5 4 -11 3 -13 -2 -5 -11 -77 -52 -92 -52 -8 0 -19 -7 -26 -15 -7 -8 -16 -13
-20 -10 -5 3 -11 1 -15 -5 -4 -6 -11 -8 -16 -5 -5 4 -9 2 -9 -3 0 -5 -6 -9
-12 -10 -15 -1 -52 -10 -55 -12 -2 -2 -7 -4 -13 -5 -5 -1 -13 -4 -17 -5 -5 -1
-11 -2 -15 -1 -5 0 -8 -4 -8 -10 0 -5 -4 -8 -8 -5 -5 3 -21 -1 -36 -9 -30 -16
-55 -10 -74 17 -7 10 -18 16 -23 13 -5 -4 -9 -2 -9 3 0 5 -10 13 -22 17 -13 4
-25 8 -28 9 -39 17 -67 27 -84 30 -24 4 -51 -28 -39 -47 4 -6 9 -23 10 -37 1
-14 4 -41 6 -61 3 -25 1 -36 -9 -36 -7 0 -11 4 -8 9 5 7 -18 12 -38 9 -5 0 -8
4 -8 10 0 5 -5 7 -10 4 -6 -4 -17 -1 -25 5 -8 6 -19 9 -25 5 -5 -3 -10 -2 -10
4 0 5 -9 8 -20 6 -11 -2 -22 0 -24 4 -3 4 -22 7 -43 6 -37 0 -38 -1 -38 -35 0
-19 3 -38 8 -41 4 -3 9 -20 12 -39 2 -18 8 -37 14 -43 5 -5 7 -15 5 -22 -3 -7
7 -22 22 -34 15 -11 23 -21 18 -21 -4 0 1 -7 12 -16 10 -8 12 -13 4 -9 -13 6
15 -21 57 -55 9 -7 10 -18 3 -34 -5 -13 -6 -27 -3 -30 3 -3 0 -12 -6 -20 -7
-8 -12 -36 -12 -63 1 -46 7 -108 11 -108 6 0 6 -62 0 -70 -5 -5 -10 -46 -12
-90 -2 -65 -7 -83 -23 -96 -20 -17 -67 -18 -130 -4 -16 4 -42 7 -57 8 -15 1
-25 4 -22 8 6 11 -24 19 -43 12 -11 -4 -14 -3 -9 5 4 7 1 12 -8 12 -9 0 -23
11 -32 25 -9 14 -23 25 -31 25 -8 0 -12 4 -8 9 3 5 -4 12 -15 16 -11 4 -18 11
-15 16 14 22 -4 6 -20 -17 -9 -15 -11 -23 -4 -19 8 6 10 4 3 -6 -11 -19 -15
-99 -4 -99 5 0 7 -11 4 -24 -2 -14 0 -28 6 -31 5 -3 10 -17 10 -30 0 -13 5
-27 10 -30 6 -4 8 -10 5 -15 -3 -5 0 -12 6 -15 5 -4 8 -13 5 -20 -3 -8 -1 -15
4 -17 5 -2 10 -10 12 -18 2 -8 9 -19 16 -25 7 -6 13 -23 15 -39 2 -23 -2 -30
-20 -32 -13 -2 -23 1 -23 7 0 6 -6 9 -14 6 -7 -3 -19 0 -26 6 -10 9 -11 9 -5
-3 6 -10 2 -9 -13 3 -12 11 -26 16 -33 11 -8 -4 -10 -3 -5 4 6 10 -4 14 -30
11 -3 0 -13 8 -22 19 -9 10 -23 17 -31 14 -9 -3 -11 0 -6 7 5 8 1 11 -11 9
-11 -2 -18 2 -16 10 1 6 -1 11 -5 10 -14 -4 -54 23 -48 32 3 6 0 7 -8 4 -8 -3
-20 2 -27 11 -7 8 -9 15 -4 15 4 0 -14 21 -42 46 -27 26 -48 53 -46 61 2 9 -2
13 -9 11 -7 -2 -14 -23 -16 -47 -2 -23 1 -40 5 -37 5 3 8 -5 8 -17 -1 -12 0
-26 3 -32 3 -5 6 -19 8 -30 2 -11 5 -29 7 -40 2 -11 4 -26 5 -33 0 -7 5 -11
10 -8 5 4 7 -3 4 -14 -3 -11 -1 -20 5 -20 5 0 13 -7 16 -16 4 -9 2 -13 -5 -8
-6 3 -3 -5 6 -19 9 -14 16 -28 16 -31 -3 -19 0 -26 8 -22 11 7 22 -20 15 -38
-3 -7 7 -23 22 -35 15 -11 23 -21 18 -21 -4 0 1 -7 12 -16 10 -8 13 -13 7 -9
-20 10 -15 -2 10 -26 12 -12 15 -18 7 -14 -8 4 3 -10 25 -31 22 -21 39 -41 38
-44 0 -3 15 -16 34 -30 19 -14 52 -40 72 -59 20 -19 26 -26 14 -16 -13 10 -23
15 -23 12 0 -3 28 -27 62 -53 34 -27 58 -41 53 -33 -8 12 -6 12 8 0 9 -7 15
-17 12 -21 -3 -5 -1 -11 4 -14 5 -4 7 -22 4 -41 -4 -22 -2 -35 5 -35 6 0 9 -6
6 -14 -3 -8 3 -20 14 -27 11 -7 18 -19 15 -26 -3 -7 1 -13 9 -13 8 0 23 -9 33
-20 10 -11 21 -17 26 -15 4 3 12 -3 18 -12 6 -10 11 -15 11 -12 0 4 19 -11 42
-32 23 -21 45 -36 50 -33 4 3 13 2 20 -2 20 -13 70 -15 84 -4 20 17 65 22 80
9 9 -7 14 -8 14 -1 0 6 8 9 18 8 9 -2 23 4 30 13 8 9 11 10 7 4 -4 -9 -1 -11
9 -7 9 3 16 11 16 16 0 6 7 8 15 4 8 -3 15 -1 15 3 0 5 8 8 18 6 9 -1 23 2 30
8 6 5 12 6 12 1 0 -4 11 6 23 24 13 17 26 29 29 27 3 -3 11 2 19 12 12 15 12
16 -1 8 -11 -6 -10 -3 3 12 9 11 14 23 10 26 -3 4 -1 7 6 7 7 0 10 4 6 9 -7
13 53 74 65 66 6 -3 10 -1 10 5 0 6 5 8 10 5 6 -3 10 -2 10 4 0 6 6 8 14 5 8
-3 17 0 21 5 3 6 11 9 16 6 5 -4 9 -1 9 5 0 6 5 8 10 5 6 -3 10 -3 10 2 0 4
12 17 27 27 14 11 23 14 19 8 -5 -8 -2 -10 8 -6 9 3 13 10 10 15 -3 5 5 13 18
18 13 5 30 17 38 27 14 18 14 18 -5 5 -11 -8 -8 -3 7 12 15 15 32 27 39 27 6
0 8 7 5 16 -3 8 -2 12 4 9 6 -3 13 1 16 9 3 9 13 16 21 16 8 0 11 5 7 12 -5 8
-2 9 12 4 10 -4 16 -4 12 -1 -6 6 31 50 42 50 14 0 58 43 52 50 -4 5 -2 5 5 2
6 -4 19 0 27 9 9 8 16 12 16 8 0 -4 9 1 20 11 11 10 17 23 13 29 -3 6 -3 8 1
4 5 -4 18 3 30 16 11 12 17 15 11 6 -5 -9 2 -3 16 12 23 25 35 29 89 33 34 1
67 9 74 16 8 9 8 10 -4 4 -8 -5 -12 -5 -8 0 4 4 18 13 30 19 13 6 24 22 26 34
2 12 7 20 11 18 4 -3 7 7 6 21 0 15 -6 28 -12 30 -7 3 -9 11 -6 19 3 8 -4 17
-18 23 -13 5 -20 10 -16 10 4 1 -4 12 -19 26 -15 14 -23 25 -19 25 4 0 2 7 -5
15 -7 8 -15 13 -19 10 -4 -2 -20 21 -36 51 -16 30 -33 58 -39 61 -5 4 -6 1 -1
-7 5 -9 4 -11 -3 -6 -7 4 -12 14 -12 22 0 8 -5 14 -11 14 -5 0 -7 5 -4 10 8
12 -30 62 -39 52 -4 -3 -4 1 -1 10 4 9 1 19 -6 24 -8 5 -10 3 -4 -7 5 -8 4
-11 -1 -6 -5 5 -9 12 -10 15 -3 30 -18 61 -26 56 -5 -3 -8 0 -6 7 4 19 -22 79
-34 79 -5 0 -7 4 -3 10 3 5 1 17 -4 27 -16 30 -36 88 -33 96 1 4 -3 7 -9 7 -5
0 -7 5 -4 10 4 6 2 16 -3 23 -5 7 -10 19 -10 27 -1 8 -4 29 -7 45 -3 17 -7 44
-8 60 -2 17 -6 35 -9 41 -9 14 -4 174 6 197 5 9 6 33 4 52 -2 19 -1 35 3 35 3
0 7 15 7 33 0 17 2 48 4 69 2 20 0 34 -4 32 -5 -3 -8 -1 -8 5 0 6 -16 10 -35
9 -20 -1 -32 -5 -28 -11z"/>
<path d="M6801 2812 c-21 -7 -68 -58 -85 -90 -8 -15 -34 -46 -59 -68 -25 -23
-43 -45 -40 -48 4 -3 1 -6 -5 -6 -7 0 -12 -6 -12 -14 0 -7 -8 -20 -17 -27 -17
-13 -17 -13 -3 6 14 19 14 19 -2 6 -10 -7 -16 -16 -14 -20 3 -4 -15 -29 -40
-56 -24 -28 -42 -55 -40 -62 3 -6 -2 -14 -10 -17 -8 -3 -26 -31 -40 -61 -14
-30 -30 -55 -35 -55 -6 0 -8 -4 -5 -9 3 -5 -1 -14 -9 -21 -8 -7 -12 -16 -9
-21 3 -5 0 -9 -5 -9 -16 0 -13 -16 5 -34 8 -9 13 -16 10 -16 -4 0 8 -14 26
-31 18 -18 26 -28 18 -23 -9 5 -7 1 3 -8 11 -10 16 -18 12 -18 -3 0 0 -7 9
-15 8 -8 20 -15 26 -15 7 0 10 -7 6 -15 -3 -8 -2 -15 2 -15 5 0 8 -11 8 -24 0
-14 -4 -22 -10 -19 -5 4 -7 -1 -3 -10 3 -10 2 -17 -4 -17 -6 0 -7 -5 -4 -10 9
-14 -4 -52 -16 -45 -8 6 -13 -15 -10 -42 1 -7 -3 -13 -9 -13 -5 0 -10 -9 -10
-21 0 -13 -4 -18 -12 -13 -8 5 -9 2 -5 -10 4 -9 3 -15 -1 -12 -5 3 -16 -8 -26
-25 -9 -16 -21 -27 -26 -24 -4 2 -14 -3 -21 -12 -12 -14 -12 -16 0 -8 10 5 12
4 7 -3 -4 -7 -14 -12 -22 -12 -8 0 -13 -3 -12 -7 2 -10 -10 -41 -28 -75 -8
-14 -14 -31 -14 -37 0 -8 87 -11 308 -9 l307 3 -1 27 c-1 15 2 26 5 23 4 -2
13 5 20 17 10 16 10 19 -1 13 -7 -5 1 5 18 21 17 16 29 35 27 42 -3 6 0 12 7
12 6 0 9 4 6 9 -3 4 1 17 9 27 7 10 11 29 8 42 -3 14 -1 22 7 22 7 0 10 7 6
15 -3 8 1 18 9 22 8 5 16 19 18 31 2 12 8 27 14 33 6 6 9 18 6 27 -4 9 -2 13
4 9 6 -4 14 0 17 9 4 9 2 13 -5 8 -7 -4 -7 1 1 15 6 12 18 25 26 28 7 3 12 9
9 14 -3 4 5 15 17 23 23 15 65 76 52 76 -3 0 4 9 17 21 13 11 18 17 10 14 -9
-5 -8 1 4 19 12 19 16 37 11 68 -3 24 -7 54 -9 68 -1 14 -9 36 -17 50 -8 14
-13 29 -12 33 1 5 -2 6 -8 2 -5 -3 -10 -1 -10 4 0 6 -5 11 -11 11 -6 0 -20 11
-31 26 -11 14 -23 23 -26 20 -3 -3 -20 11 -39 32 -50 55 -59 67 -66 85 -3 9
-11 17 -17 17 -6 0 -8 5 -5 10 3 6 -1 10 -9 10 -13 0 -23 16 -27 45 -1 6 -10
16 -21 23 -10 7 -16 18 -13 23 4 5 1 9 -6 9 -7 0 -24 13 -38 29 -14 15 -32 26
-40 23z"/>
<path d="M6669 2683 l-24 -28 28 24 c15 14 27 26 27 28 0 8 -8 1 -31 -24z"/>
<path d="M5507 2569 c-9 -6 -22 -7 -27 -4 -6 3 -10 1 -10 -4 0 -6 -3 -10 -7
-9 -17 5 -115 -35 -120 -48 -3 -8 -10 -11 -15 -8 -6 4 -5 -3 1 -15 7 -12 9
-25 7 -30 -3 -5 1 -12 10 -15 9 -3 14 -12 11 -20 -3 -8 6 -24 20 -37 30 -29
52 -66 31 -54 -7 5 -3 -3 10 -17 12 -13 19 -28 15 -31 -3 -4 -1 -7 5 -7 16 0
11 -22 -8 -37 -8 -6 -15 -17 -15 -25 -1 -7 -7 -12 -14 -10 -8 2 -24 -6 -36
-18 -12 -11 -25 -17 -28 -13 -4 3 -7 1 -7 -5 0 -6 -9 -14 -20 -17 -11 -4 -18
-10 -15 -14 2 -4 -8 -14 -23 -22 -15 -7 -49 -36 -77 -63 -27 -27 -43 -46 -35
-42 9 4 8 2 -2 -7 -10 -8 -15 -17 -11 -20 3 -4 1 -7 -5 -7 -6 0 -9 -7 -5 -17
4 -11 3 -14 -5 -9 -8 5 -10 2 -6 -8 4 -9 1 -16 -6 -16 -8 0 -11 -9 -7 -25 3
-19 -4 -34 -24 -56 -16 -17 -29 -28 -29 -25 0 3 -9 -2 -19 -11 -11 -9 -18 -20
-15 -25 3 -4 -1 -6 -8 -3 -7 3 -18 -5 -23 -17 -6 -13 -17 -22 -25 -20 -8 2
-12 0 -8 -4 4 -4 1 -12 -8 -18 -8 -6 -17 -27 -21 -46 -3 -19 -9 -43 -14 -52
-9 -17 8 -18 305 -18 l314 0 -4 28 c-14 86 -15 123 -3 138 7 8 18 13 26 10 7
-3 13 -1 13 3 0 5 19 7 43 5 89 -10 136 -5 161 14 6 5 19 8 29 7 9 -2 17 0 17
5 0 7 42 22 47 17 2 -1 9 8 18 20 9 13 22 19 34 16 13 -3 23 2 31 16 6 12 15
19 21 16 5 -4 8 -3 7 2 -2 4 -1 8 2 8 3 0 16 10 29 22 13 12 28 20 33 17 5 -3
7 0 6 7 -2 7 4 13 12 14 25 0 61 25 54 37 -4 7 -2 8 5 4 6 -4 18 -2 26 4 8 7
15 9 15 6 0 -4 18 3 40 15 21 12 37 26 35 30 -3 4 2 15 11 23 8 9 12 16 8 16
-3 0 -2 6 4 13 17 20 21 95 6 108 -8 6 -14 8 -14 4 0 -4 -6 -3 -12 2 -7 6 -21
9 -30 8 -10 -2 -18 0 -18 4 0 4 -15 7 -34 8 -18 1 -45 8 -58 17 -14 9 -28 13
-31 9 -4 -3 -7 -1 -7 5 0 6 -6 9 -14 6 -7 -3 -20 2 -29 10 -9 9 -30 18 -48 20
-18 2 -35 8 -37 15 -2 6 -8 8 -14 5 -5 -3 -16 2 -24 12 -9 11 -12 12 -8 4 4
-8 -3 -5 -15 7 -12 13 -34 26 -49 29 -15 4 -31 12 -37 19 -5 6 -23 15 -38 19
-17 4 -25 11 -21 18 5 8 2 9 -10 5 -11 -4 -15 -3 -11 4 4 6 -2 13 -14 16 -12
3 -21 10 -21 15 0 6 -6 8 -14 5 -8 -3 -20 2 -28 11 -12 16 -11 16 7 2 18 -14
19 -14 7 2 -7 9 -24 19 -38 22 -14 4 -22 11 -19 16 6 10 1 12 -27 14 -7 1 -17
6 -23 13 -7 9 -15 9 -28 2z"/>
<path d="M2536 2498 c-9 -5 -21 -6 -26 -3 -6 3 -10 1 -10 -5 0 -6 -4 -9 -9 -5
-5 3 -12 1 -16 -5 -4 -6 -11 -8 -16 -4 -5 3 -17 0 -25 -7 -13 -11 -26 -14 -86
-23 -10 -1 -21 -5 -24 -9 -12 -12 -79 -8 -93 6 -11 10 -12 9 -6 -2 6 -10 4
-12 -6 -5 -18 11 -39 14 -40 6 -6 -44 -4 -70 6 -82 8 -8 13 -18 12 -22 -1 -3
9 -19 23 -35 13 -15 24 -30 23 -33 -1 -11 93 -119 105 -119 7 -1 11 -5 8 -10
-3 -5 1 -12 10 -15 9 -4 14 -9 11 -12 -3 -3 9 -21 28 -40 18 -18 35 -41 37
-51 2 -10 10 -17 17 -15 7 1 10 -2 7 -7 -4 -5 -3 -12 2 -14 4 -3 6 -23 4 -44
-1 -21 -4 -58 -5 -83 -1 -25 -5 -50 -10 -57 -4 -6 -4 -18 -1 -26 3 -10 -5 -25
-20 -38 -14 -13 -26 -29 -26 -36 0 -7 -3 -12 -7 -12 -20 3 -34 -2 -29 -10 3
-5 -2 -8 -12 -7 -9 0 -16 -4 -15 -11 2 -8 -4 -10 -15 -6 -9 3 -14 2 -10 -2 5
-5 -2 -13 -13 -19 -53 -27 -19 -31 262 -34 l287 -2 -2 40 c-1 22 2 40 7 40 4
0 5 5 2 10 -3 6 -1 10 5 10 7 0 10 6 8 12 -3 7 6 21 19 31 13 10 20 23 17 29
-3 5 5 22 18 36 39 44 55 67 40 58 -11 -7 -12 -4 -3 13 7 11 14 21 17 21 3 0
2 -5 -2 -12 -4 -7 -3 -8 5 -4 6 4 9 16 6 27 -4 10 -2 19 4 19 13 0 43 69 35
81 -3 5 0 9 6 9 6 0 8 11 6 24 -2 13 2 36 9 50 8 14 12 35 10 46 -2 11 0 20 5
20 13 0 6 86 -8 103 -7 8 -24 14 -37 12 -14 -1 -25 2 -25 6 0 5 -3 8 -7 7 -5
-1 -19 3 -33 9 -14 6 -40 17 -57 23 -18 7 -30 17 -26 23 4 6 1 7 -7 2 -8 -5
-20 1 -32 16 -11 13 -16 17 -12 9 7 -13 5 -13 -9 -1 -9 7 -14 18 -10 24 3 6 1
7 -5 3 -7 -4 -12 -2 -12 3 0 6 -6 10 -12 8 -7 -1 -12 4 -10 11 1 8 -1 11 -6 8
-5 -3 -18 2 -28 10 -10 9 -12 13 -4 9 8 -4 4 3 -10 14 -14 11 -30 19 -37 16
-7 -2 -20 3 -28 12 -18 17 -95 25 -119 11z m374 -732 c0 -2 -8 -10 -17 -17
-16 -13 -17 -12 -4 4 13 16 21 21 21 13z"/>
<path d="M3164 2248 c-3 -4 -10 -5 -16 -2 -6 4 -8 2 -4 -4 3 -6 3 -13 -2 -16
-5 -3 -8 -27 -7 -53 1 -26 -1 -52 -4 -58 -6 -10 -10 -28 -15 -55 -1 -8 -8 -26
-15 -39 -11 -19 -11 -22 0 -15 7 4 4 -6 -7 -22 -35 -49 -39 -58 -23 -49 8 5 6
-1 -4 -12 -10 -11 -19 -30 -20 -42 -1 -11 -4 -21 -8 -21 -4 0 -5 -9 -2 -20 3
-11 12 -20 20 -20 8 0 11 -5 8 -10 -4 -6 -3 -10 2 -9 25 4 44 -2 37 -13 -4 -7
-3 -10 1 -5 5 4 18 0 31 -8 12 -8 32 -12 43 -10 12 2 21 -1 21 -6 0 -6 5 -7
10 -4 6 3 10 1 10 -5 0 -6 10 -8 25 -4 15 4 25 2 25 -4 0 -6 8 -11 18 -12 81
-3 108 -6 118 -12 5 -4 28 -5 50 -3 21 2 44 -1 50 -6 7 -5 16 -9 20 -8 25 4
45 -2 38 -13 -5 -8 -2 -9 9 -5 10 3 17 2 17 -3 0 -6 5 -10 11 -10 7 0 18 -8
26 -17 10 -12 12 -13 8 -3 -4 8 0 7 9 -4 8 -10 28 -21 43 -23 15 -2 35 -5 43
-7 9 -1 22 -6 29 -11 10 -6 12 -4 6 6 -7 11 -6 12 6 2 8 -6 24 -10 34 -8 11 2
25 4 32 4 6 1 21 17 33 36 17 28 19 39 10 50 -6 8 -9 19 -5 26 4 6 3 14 -3 18
-6 3 -13 19 -16 35 -3 16 -13 37 -22 47 -10 11 -14 22 -11 25 3 4 -1 13 -9 21
-8 8 -12 19 -9 24 4 5 1 9 -5 9 -10 0 -31 41 -35 65 0 6 -7 9 -14 7 -7 -1 -9
2 -5 9 3 6 -6 22 -21 35 -16 13 -24 24 -19 24 5 0 1 5 -9 11 -9 6 -15 14 -12
20 4 5 2 9 -2 9 -5 0 -18 7 -29 16 -10 8 -12 12 -4 8 10 -5 9 0 -4 14 -21 24
-31 29 -20 10 3 -7 -5 -1 -18 14 -14 15 -28 25 -31 22 -3 -3 -14 -1 -24 4 -13
7 -26 4 -51 -13 -18 -13 -33 -27 -33 -31 2 -21 -44 -7 -77 23 -19 18 -39 30
-44 27 -4 -3 -8 2 -8 11 0 9 -5 13 -11 9 -6 -3 -22 6 -35 21 -12 15 -28 24
-33 20 -6 -3 -11 0 -11 7 0 15 -77 21 -86 6z"/>
<path d="M6898 1180 c-125 -21 -230 -80 -317 -176 -101 -113 -151 -247 -151
-409 0 -165 48 -295 149 -406 115 -128 243 -183 421 -183 176 0 282 43 400
163 87 88 123 149 150 257 57 223 0 445 -155 599 -130 130 -310 186 -497 155z
m195 -306 c65 -22 141 -107 163 -181 60 -205 -93 -413 -288 -390 -215 26 -313
297 -173 480 73 96 185 130 298 91z"/>
<path d="M2020 1116 c-12 -34 -82 -225 -155 -426 -173 -474 -227 -631 -220
-647 3 -11 38 -13 157 -11 l152 3 26 75 c23 68 28 75 59 83 45 11 327 5 340
-8 5 -5 17 -36 25 -69 9 -32 21 -65 27 -72 18 -22 317 -20 326 1 3 9 -7 50
-22 93 -105 293 -377 988 -398 1015 -10 14 -36 17 -154 20 l-142 3 -21 -60z
m215 -436 c13 -41 31 -103 39 -138 14 -60 14 -63 -6 -73 -22 -12 -161 -9 -174
3 -6 7 32 136 76 252 26 67 28 66 65 -44z"/>
<path d="M5620 1116 c-12 -34 -82 -225 -155 -426 -173 -474 -227 -631 -220
-647 3 -11 38 -13 157 -11 l152 3 26 75 c23 68 28 75 59 83 45 11 327 5 340
-8 5 -5 17 -36 25 -69 9 -32 21 -65 27 -72 18 -22 317 -20 326 1 3 9 -7 50
-22 93 -105 293 -377 988 -398 1015 -10 14 -36 17 -154 20 l-142 3 -21 -60z
m215 -436 c13 -41 31 -103 39 -138 14 -60 14 -63 -6 -73 -22 -12 -161 -9 -174
3 -6 7 32 136 76 252 26 67 28 66 65 -44z"/>
<path d="M3010 1160 c-25 -5 -70 -9 -100 -9 l-55 -1 0 -560 -1 -560 154 0 153
0 -1 297 c-1 171 2 299 7 300 10 4 61 -60 286 -362 82 -110 158 -208 169 -218
17 -14 41 -17 148 -17 l127 0 8 477 c4 263 8 516 9 563 l1 85 -155 -4 c-85 -2
-157 -5 -159 -7 -3 -2 1 -133 8 -290 14 -306 12 -329 -30 -287 -12 11 -117
151 -233 309 l-212 289 -39 1 c-22 1 -60 -2 -85 -6z"/>
<path d="M146 1149 c-2 -8 -7 -102 -10 -211 l-6 -196 50 -119 c28 -65 101
-224 163 -353 l112 -235 121 -3 c89 -2 124 1 131 10 6 7 32 67 57 133 75 192
81 205 87 205 4 0 36 -77 73 -170 54 -137 72 -171 89 -175 12 -3 69 -5 126 -3
l105 3 20 34 c11 19 87 178 169 355 l150 321 -6 203 c-3 112 -7 206 -10 208
-2 2 -72 1 -156 -3 l-152 -6 3 -221 3 -221 -55 -121 c-30 -66 -62 -131 -72
-145 l-16 -24 -21 48 c-11 26 -37 96 -58 155 l-37 107 3 207 2 207 -23 6 c-13
3 -81 4 -153 3 l-130 -3 -6 -230 -5 -230 -45 -129 c-25 -72 -51 -132 -57 -134
-13 -4 -116 203 -142 282 -10 30 -11 89 -6 243 l7 203 -68 0 c-37 0 -105 3
-150 7 -66 5 -83 3 -87 -8z"/>
<path d="M4085 596 l0 -561 155 0 155 0 3 210 c2 183 4 212 19 223 22 16 365
17 395 1 20 -11 20 -17 17 -222 l-4 -212 160 -3 161 -2 -1 563 0 563 -159 0
-159 0 8 -197 c5 -159 4 -198 -7 -205 -18 -12 -344 -17 -393 -7 l-40 9 0 79
c0 44 2 134 5 200 l5 119 -160 1 -160 1 0 -560z"/>
</g>
</svg>
