<?xml version="1.0" standalone="no"?>
<!DOCTYPE svg PUBLIC "-//W3C//DTD SVG 20010904//EN"
 "http://www.w3.org/TR/2001/REC-SVG-20010904/DTD/svg10.dtd">
<svg version="1.0" xmlns="http://www.w3.org/2000/svg"
 width="281.000000pt" height="179.000000pt" viewBox="0 0 281.000000 179.000000"
 preserveAspectRatio="xMidYMid meet">

<g transform="translate(0.000000,179.000000) scale(0.100000,-0.100000)"
fill="#000000" stroke="none">
<path d="M587 1560 c-114 -20 -228 -110 -261 -207 -24 -71 -24 -737 1 -809 20
-60 97 -139 168 -174 l50 -25 978 -3 977 -2 0 473 c0 531 -1 538 -69 624 -47
61 -134 108 -221 122 -77 13 -1549 13 -1623 1z m475 -241 c29 -6 67 -19 83
-28 21 -11 66 -18 144 -21 l114 -5 47 -135 48 -135 10 40 c6 22 16 67 22 100
6 33 16 77 21 98 l10 37 78 0 c64 0 89 5 137 27 50 23 73 27 149 28 117 0 177
-18 231 -69 53 -51 66 -111 39 -181 -15 -40 -54 -85 -87 -98 -10 -4 -8 -9 5
-17 25 -16 57 -87 57 -128 1 -112 -69 -206 -175 -238 -90 -27 -244 -25 -310 5
-27 12 -56 28 -65 36 -10 9 -45 15 -105 17 l-88 3 -48 140 c-26 77 -48 137
-48 133 -2 -14 -52 -244 -57 -260 -4 -15 -17 -18 -71 -18 -47 0 -72 -5 -91
-19 -99 -70 -321 -78 -430 -15 -73 43 -121 142 -106 220 l6 34 104 0 104 0 0
-32 c1 -42 19 -66 59 -78 84 -24 166 55 114 112 -12 13 -31 18 -71 18 -51 0
-54 1 -48 23 3 12 10 46 16 75 l12 52 51 0 c66 0 101 18 105 51 4 38 -22 59
-72 59 -50 0 -90 -26 -100 -65 -6 -25 -8 -25 -106 -25 l-100 0 0 28 c1 36 35
111 68 145 77 81 210 114 344 86z"/>
<path d="M843 1291 c-72 -25 -117 -62 -147 -123 -42 -85 -40 -88 58 -88 75 0
85 2 91 20 3 10 20 31 38 46 27 23 38 26 81 21 36 -3 55 -11 68 -27 44 -55 6
-105 -89 -115 -61 -7 -61 -8 -68 -44 -3 -20 -8 -44 -11 -53 -4 -15 1 -18 33
-18 78 0 119 -48 93 -110 -16 -39 -56 -60 -113 -60 -56 0 -94 28 -103 75 l-6
35 -89 0 -89 0 0 -32 c0 -91 56 -173 138 -205 35 -13 74 -18 152 -18 132 1
194 20 245 76 45 50 56 78 58 149 2 77 -24 120 -83 139 l-44 14 47 12 c86 22
122 74 115 168 -4 53 -8 63 -40 93 -68 62 -225 83 -335 45z"/>
<path d="M1825 1297 c-106 -36 -166 -96 -189 -189 l-6 -28 85 0 c84 0 85 0
100 30 48 93 209 73 196 -25 -4 -33 -39 -54 -101 -61 l-58 -6 -11 -44 c-16
-62 -15 -64 28 -64 86 0 122 -81 62 -141 -25 -25 -37 -29 -84 -29 -45 0 -59 4
-81 26 -16 17 -26 38 -26 55 l0 29 -91 0 -91 0 4 -59 c4 -64 38 -125 84 -156
64 -41 210 -56 315 -31 119 28 178 90 186 198 8 93 -20 140 -96 164 -31 10
-32 12 -11 13 14 1 44 10 67 20 56 26 87 84 80 154 -5 62 -31 96 -93 126 -60
29 -205 39 -269 18z"/>
<path d="M1849 1121 c-16 -16 -29 -37 -29 -45 0 -12 -11 -16 -49 -16 l-50 0
-16 -77 c-9 -43 -19 -86 -21 -95 -4 -13 3 -17 33 -20 35 -3 38 -6 44 -40 3
-20 11 -43 18 -51 16 -21 63 -28 104 -16 40 11 53 23 62 61 11 41 -23 68 -85
68 -57 0 -57 0 -36 90 12 53 14 55 47 58 119 9 159 42 109 92 -32 32 -94 27
-131 -9z"/>
</g>
</svg>
