<?xml version="1.0" standalone="no"?>
<!DOCTYPE svg PUBLIC "-//W3C//DTD SVG 20010904//EN"
 "http://www.w3.org/TR/2001/REC-SVG-20010904/DTD/svg10.dtd">
<svg version="1.0" xmlns="http://www.w3.org/2000/svg"
 width="512.000000pt" height="512.000000pt" viewBox="0 0 512.000000 512.000000"
 preserveAspectRatio="xMidYMid meet">

<g transform="translate(0.000000,512.000000) scale(0.100000,-0.100000)"
fill="#000000" stroke="none">
<path d="M2053 3700 c-17 -4 -45 -16 -61 -26 -26 -16 -265 -241 -692 -649
-262 -251 -297 -284 -342 -326 -27 -23 -48 -46 -48 -51 0 -4 69 -8 154 -8
l153 0 44 38 c58 51 83 65 295 171 173 86 345 164 350 158 2 -2 -1 -32 -7 -67
-5 -36 -13 -96 -19 -135 -5 -38 -12 -91 -16 -117 l-7 -48 86 0 85 0 11 68 c12
80 51 364 51 373 0 6 95 42 245 95 300 104 752 211 1095 259 346 48 794 67
1099 46 91 -6 166 -9 168 -7 8 8 -194 47 -362 71 -595 83 -1326 2 -2027 -225
-100 -32 -184 -57 -186 -55 -2 2 10 99 27 216 17 116 28 216 25 220 -6 11 -76
10 -121 -1z m-107 -442 c-4 -35 -8 -64 -9 -65 -4 -4 -217 -93 -223 -93 -3 0
40 44 97 98 56 53 107 102 113 109 22 25 28 11 22 -49z"/>
<path d="M4718 3463 c6 -2 18 -2 25 0 6 3 1 5 -13 5 -14 0 -19 -2 -12 -5z"/>
<path d="M4310 3382 c0 -14 -40 -297 -45 -319 -5 -20 -12 -22 -72 -25 l-67 -3
-12 -70 c-20 -113 -24 -105 56 -105 68 0 70 -1 65 -22 -15 -70 -65 -474 -65
-529 0 -80 26 -141 72 -169 29 -17 50 -20 169 -20 l136 0 12 103 c7 56 15 119
18 140 l6 37 -107 0 -106 0 1 73 c0 39 10 142 22 227 l22 155 75 5 75 5 58 85
58 85 -116 3 c-135 3 -124 -18 -95 182 28 189 36 170 -70 170 -49 0 -90 -3
-90 -8z"/>
<path d="M3186 3039 c-3 -8 -12 -63 -20 -124 -9 -60 -29 -202 -47 -315 -35
-235 -35 -329 0 -399 42 -82 37 -81 452 -81 l366 0 6 68 c4 37 7 84 7 105 l0
37 -335 0 -335 0 0 33 c0 17 7 86 15 152 8 65 15 121 15 122 0 2 157 3 349 3
l348 0 7 46 c3 26 6 93 6 149 0 89 -3 106 -22 135 -50 72 -33 69 -440 77 -312
5 -368 4 -372 -8z m613 -119 l74 0 -6 -58 c-11 -101 -2 -96 -146 -89 -69 4
-186 7 -260 7 l-133 0 6 48 c4 26 9 60 13 76 l5 29 187 -6 c102 -4 219 -7 260
-7z"/>
<path d="M2246 3023 c-3 -10 -12 -70 -20 -133 -15 -113 -33 -246 -80 -585 -13
-93 -23 -171 -21 -173 1 -1 42 -4 91 -5 l89 -2 41 290 c23 160 47 327 54 373
l12 82 184 0 184 0 0 -26 c0 -15 -7 -72 -15 -128 -8 -55 -28 -202 -45 -326
-17 -124 -33 -235 -35 -247 -5 -23 -5 -23 125 -23 117 0 130 2 130 18 0 9 20
170 44 358 43 337 45 387 21 465 -4 11 -25 33 -47 50 l-41 29 -333 0 c-308 0
-333 -1 -338 -17z"/>
<path d="M826 2575 l-59 -55 164 0 165 0 54 55 54 55 -159 0 -160 -1 -59 -54z"/>
<path d="M1856 2608 c-3 -13 -7 -38 -9 -55 l-4 -33 84 0 c91 0 87 -2 97 68 l6
42 -85 0 c-80 0 -85 -1 -89 -22z"/>
<path d="M695 2450 l-49 -50 160 0 160 0 49 50 49 50 -160 0 -160 0 -49 -50z"/>
<path d="M1836 2478 c-3 -13 -6 -35 -6 -50 l0 -28 85 0 c76 0 85 2 85 19 0 10
3 33 6 50 l7 31 -86 0 c-79 0 -85 -1 -91 -22z"/>
<path d="M564 2325 l-49 -44 160 0 160 0 48 44 48 45 -158 0 -159 0 -50 -45z"/>
<path d="M1820 2356 c0 -7 -3 -28 -6 -45 l-6 -31 85 0 c92 0 96 3 97 68 0 21
-3 22 -85 22 -65 0 -85 -3 -85 -14z"/>
<path d="M435 2200 l-39 -40 156 0 155 0 44 40 44 39 -160 1 -161 0 -39 -40z"/>
<path d="M1800 2216 c0 -13 -3 -31 -6 -40 -5 -14 6 -16 85 -16 90 0 91 0 91
24 0 13 3 31 6 40 5 14 -6 16 -85 16 -90 0 -91 0 -91 -24z"/>
<path d="M313 2085 l-28 -24 140 -2 c77 -1 149 0 160 1 21 2 55 28 55 42 0 4
-67 8 -149 8 -145 0 -151 -1 -178 -25z"/>
<path d="M1790 2101 c0 -5 -3 -16 -6 -25 -5 -14 6 -16 85 -16 90 0 91 0 91 25
0 25 -1 25 -85 25 -47 0 -85 -4 -85 -9z"/>
<path d="M390 1874 c-38 -16 -69 -50 -70 -75 0 -12 11 -18 36 -21 30 -4 38 0
46 18 19 41 87 42 109 3 13 -25 -12 -69 -39 -69 -23 0 -42 -19 -42 -42 0 -14
8 -18 33 -18 47 0 69 -19 70 -63 1 -48 -22 -71 -69 -71 -28 0 -42 7 -58 27
-17 21 -31 27 -59 27 -47 0 -50 -26 -6 -69 95 -95 289 -38 289 84 0 27 -41 77
-70 87 -11 4 -7 12 18 35 53 51 37 108 -42 144 -49 22 -99 23 -146 3z"/>
<path d="M747 1883 c-4 -3 -7 -96 -7 -205 l0 -198 123 0 c147 0 190 11 238 59
44 44 64 105 54 170 -14 97 -59 148 -147 170 -50 12 -250 15 -261 4z m253 -76
c53 -26 76 -129 46 -202 -19 -44 -40 -54 -131 -62 l-75 -6 0 142 0 141 68 0
c37 0 78 -6 92 -13z"/>
<path d="M1548 1874 c-5 -4 -8 -97 -8 -206 l0 -198 50 0 50 0 0 80 0 80 85 0
c128 0 182 30 192 108 7 50 -17 96 -60 119 -24 12 -66 18 -167 21 -74 2 -138
1 -142 -4z m250 -80 c22 -15 29 -49 14 -70 -15 -23 -52 -34 -111 -34 l-61 0 0
60 0 60 68 0 c45 0 75 -5 90 -16z"/>
<path d="M2060 1676 l0 -206 50 0 50 0 0 85 0 85 42 0 c36 0 46 -6 80 -42 22
-24 54 -62 71 -85 31 -41 34 -42 90 -43 l58 0 -47 63 c-49 63 -92 107 -107
107 -18 0 5 18 30 25 49 12 83 53 83 99 -1 45 -11 64 -53 91 -24 15 -55 19
-188 23 l-159 5 0 -207z m288 122 c17 -17 15 -63 -3 -78 -8 -7 -53 -15 -100
-18 l-85 -5 0 57 0 56 88 0 c55 0 92 -4 100 -12z"/>
<path d="M2610 1676 l0 -206 50 0 50 0 -2 203 -3 202 -47 3 -48 3 0 -205z"/>
<path d="M2860 1675 l0 -205 45 0 44 0 3 132 3 131 99 -131 99 -132 49 0 48 0
0 205 0 205 -45 0 -44 0 -3 -137 -3 -138 -102 138 -103 137 -45 0 -45 0 0
-205z"/>
<path d="M3377 1873 c-2 -5 -3 -19 -3 -33 1 -24 4 -25 74 -28 l72 -3 0 -169 0
-170 50 0 50 0 0 170 0 170 70 0 70 0 0 35 0 35 -189 0 c-105 0 -192 -3 -194
-7z"/>
<path d="M3890 1675 l0 -205 186 0 185 0 -3 31 -3 31 -135 1 -135 2 -3 58 -3
57 126 0 125 0 0 35 0 35 -125 0 -125 0 0 45 0 45 135 0 135 0 0 35 0 35 -180
0 -180 0 0 -205z"/>
<path d="M4400 1676 l0 -206 50 0 50 0 0 85 0 85 41 0 c45 0 66 -17 154 -123
39 -48 41 -49 92 -45 l52 3 -49 65 c-27 36 -63 75 -81 87 -29 20 -30 23 -13
29 84 27 108 52 106 110 -3 89 -41 106 -244 112 l-158 5 0 -207z m292 117 c24
-21 23 -45 -2 -68 -16 -14 -42 -20 -105 -23 l-85 -5 0 57 0 56 87 0 c66 0 91
-4 105 -17z"/>
</g>
</svg>
