<?xml version="1.0" standalone="no"?>
<!DOCTYPE svg PUBLIC "-//W3C//DTD SVG 20010904//EN"
 "http://www.w3.org/TR/2001/REC-SVG-20010904/DTD/svg10.dtd">
<svg version="1.0" xmlns="http://www.w3.org/2000/svg"
 width="228.000000pt" height="221.000000pt" viewBox="0 0 228.000000 221.000000"
 preserveAspectRatio="xMidYMid meet">

<g transform="translate(0.000000,221.000000) scale(0.100000,-0.100000)"
fill="#000000" stroke="none">
<path d="M805 1886 l-350 -203 -3 -57 c-2 -34 1 -56 8 -56 5 0 10 23 10 53 l1
52 350 201 350 202 349 -202 350 -201 0 -52 c0 -30 5 -53 10 -53 7 0 10 22 8
57 l-3 57 -350 202 c-192 112 -357 203 -365 203 -8 0 -172 -92 -365 -203z"/>
<path d="M190 1250 l0 -230 35 0 35 0 0 105 0 105 35 0 35 0 0 -105 0 -105 35
0 35 0 0 230 0 230 -35 0 -35 0 0 -95 0 -95 -35 0 -35 0 0 95 0 95 -35 0 -35
0 0 -230z"/>
<path d="M520 1250 l0 -230 80 0 80 0 0 30 c0 29 -2 30 -45 30 l-45 0 0 75 0
75 41 0 c38 0 40 1 37 28 -3 23 -8 27 -40 30 l-38 3 0 65 0 64 45 0 c43 0 45
1 45 30 l0 30 -80 0 -80 0 0 -230z"/>
<path d="M790 1250 l0 -230 75 0 75 0 0 30 c0 28 -2 30 -40 30 l-40 0 0 200 0
200 -35 0 -35 0 0 -230z"/>
<path d="M1040 1250 l0 -230 75 0 75 0 0 30 c0 28 -2 30 -40 30 l-40 0 0 200
0 200 -35 0 -35 0 0 -230z"/>
<path d="M1290 1250 l0 -230 83 0 c111 0 117 7 117 123 0 75 -3 88 -20 99 -18
12 -18 13 -2 31 13 15 17 37 16 95 -1 99 -15 112 -120 112 l-74 0 0 -230z
m125 105 c0 -58 -1 -60 -27 -63 l-28 -3 0 66 0 66 28 -3 c26 -3 27 -5 27 -63z
m5 -145 c6 -11 10 -44 8 -73 -3 -51 -4 -52 -35 -55 l-33 -3 0 75 c0 74 1 76
25 76 14 0 29 -8 35 -20z"/>
<path d="M1627 1462 c-15 -16 -17 -46 -17 -214 0 -232 -2 -228 102 -228 102 0
103 1 103 230 0 229 0 230 -105 230 -52 0 -71 -4 -83 -18z m123 -213 l0 -170
-37 3 -38 3 -3 155 c-1 85 0 160 2 167 3 7 21 13 41 13 l35 0 0 -171z"/>
<path d="M1912 1453 c2 -22 9 -29 31 -31 l27 -3 0 -200 0 -199 35 0 35 0 0
200 0 200 30 0 c27 0 30 3 30 30 l0 30 -96 0 -95 0 3 -27z"/>
<path d="M452 903 l3 -56 350 -203 c193 -112 357 -203 365 -203 8 0 173 91
365 202 l350 203 3 57 c2 35 -1 57 -8 57 -5 0 -10 -23 -10 -52 l0 -53 -350
-202 -349 -201 -350 201 -351 202 0 53 c0 29 -5 52 -10 52 -7 0 -10 -22 -8
-57z"/>
<path d="M292 278 c-7 -7 -12 -19 -11 -27 0 -10 4 -7 9 7 7 16 18 22 39 22 53
0 51 -69 -3 -71 -15 -1 -11 -4 12 -10 28 -8 33 -14 30 -37 -2 -22 -9 -28 -33
-30 -19 -3 -33 2 -42 14 -11 15 -13 15 -13 3 0 -9 12 -21 26 -28 22 -10 31 -9
50 4 24 15 33 58 15 69 -5 4 -5 18 2 35 8 23 8 33 -2 45 -16 19 -62 21 -79 4z"/>
<path d="M430 205 l0 -85 44 0 c60 0 91 35 83 95 -7 50 -36 75 -88 75 l-39 0
0 -85z m86 67 c6 -4 16 -17 23 -29 29 -57 -2 -113 -64 -113 l-35 0 0 75 0 75
33 0 c17 0 37 -4 43 -8z"/>
<path d="M690 276 c-23 -29 -8 -57 40 -75 37 -14 45 -21 45 -41 0 -22 -5 -25
-37 -28 -28 -2 -40 2 -52 20 -9 12 -16 18 -16 12 0 -6 6 -19 14 -29 18 -25 83
-26 101 -2 21 30 6 54 -47 76 -41 17 -49 24 -46 43 5 34 60 38 82 6 11 -15 16
-18 16 -7 0 8 -5 20 -12 27 -17 17 -73 15 -88 -2z"/>
<path d="M1492 203 c1 -49 3 -71 5 -50 4 35 6 37 38 37 37 0 65 21 65 50 0 30
-28 50 -71 50 l-39 0 2 -87z m92 55 c17 -27 -5 -52 -48 -56 l-36 -3 0 41 0 41
36 -3 c22 -2 42 -10 48 -20z"/>
<path d="M1331 268 c-1 -9 -7 -19 -13 -21 -10 -4 -10 -6 0 -6 8 -1 12 -20 12
-60 0 -43 4 -60 15 -65 8 -3 15 -1 15 4 0 6 -4 10 -10 10 -5 0 -10 25 -10 55
0 37 4 55 13 55 8 0 9 3 1 8 -6 4 -14 14 -17 22 -4 12 -6 12 -6 -2z"/>
<path d="M1958 263 c-7 -37 8 -134 22 -143 8 -5 17 -6 20 -3 3 3 -1 8 -7 10
-8 3 -13 24 -13 58 0 33 5 55 13 58 10 4 10 6 0 6 -7 1 -13 8 -13 16 0 21 -18
19 -22 -2z"/>
<path d="M842 185 l1 -70 6 54 c6 56 25 79 55 68 12 -5 16 -20 16 -62 0 -30 5
-55 10 -55 6 0 10 24 10 54 0 46 3 56 20 61 33 10 50 -12 52 -69 l2 -51 3 47
c2 26 -1 56 -7 68 -12 22 -49 27 -67 9 -8 -8 -17 -7 -32 3 -17 10 -25 10 -40
1 -15 -10 -21 -10 -24 0 -3 7 -5 -19 -5 -58z"/>
<path d="M1080 235 c-7 -9 -10 -18 -6 -22 3 -3 6 -2 6 4 0 15 29 25 51 18 11
-4 19 -15 19 -26 0 -14 -7 -19 -29 -19 -27 0 -61 -22 -61 -38 1 -29 22 -36 85
-30 19 2 21 98 3 116 -17 17 -53 15 -68 -3z m68 -77 c-2 -17 -11 -24 -32 -26
-16 -2 -33 1 -39 7 -16 16 11 41 45 41 25 0 29 -4 26 -22z"/>
<path d="M1238 243 c-15 -4 -18 -15 -16 -66 l2 -62 3 52 c3 40 9 56 26 68 21
15 18 17 -15 8z"/>
<path d="M1668 243 c-15 -4 -18 -15 -16 -66 l2 -62 3 52 c3 40 9 56 26 68 21
15 18 17 -15 8z"/>
<path d="M1812 185 c1 -69 1 -69 7 -18 7 58 20 77 47 71 16 -3 20 -14 22 -61
3 -61 22 -80 22 -23 0 71 -33 112 -71 88 -13 -9 -19 -8 -22 1 -3 7 -5 -19 -5
-58z"/>
<path d="M1740 180 c0 -33 4 -60 10 -60 6 0 10 27 10 60 0 33 -4 60 -10 60 -6
0 -10 -27 -10 -60z"/>
</g>
</svg>
