<?xml version="1.0" standalone="no"?>
<!DOCTYPE svg PUBLIC "-//W3C//DTD SVG 20010904//EN"
 "http://www.w3.org/TR/2001/REC-SVG-20010904/DTD/svg10.dtd">
<svg version="1.0" xmlns="http://www.w3.org/2000/svg"
 width="272.000000pt" height="272.000000pt" viewBox="0 0 272.000000 272.000000"
 preserveAspectRatio="xMidYMid meet">

<g transform="translate(0.000000,272.000000) scale(0.100000,-0.100000)"
fill="#000000" stroke="none">
<path d="M25 1532 c-3 -3 -5 -18 -5 -33 0 -28 1 -28 73 -31 l72 -3 0 -113 0
-112 38 0 37 0 0 148 0 147 -105 1 c-58 0 -108 -2 -110 -4z"/>
<path d="M2317 1534 c-11 -11 -8 -113 3 -135 21 -38 62 -49 185 -49 110 0 117
1 141 25 22 22 25 32 22 93 l-3 67 -35 0 c-34 0 -35 -1 -38 -45 -5 -64 -13
-70 -102 -70 -89 0 -97 6 -102 70 -3 42 -5 45 -33 48 -17 2 -34 0 -38 -4z"/>
<path d="M270 1385 l0 -145 38 0 37 0 0 112 0 113 73 3 72 3 0 29 0 30 -110 0
-110 0 0 -145z"/>
<path d="M550 1500 l0 -29 133 -3 c124 -3 132 -4 132 -23 0 -19 -8 -20 -132
-23 l-133 -3 0 -89 0 -90 41 0 40 0 -2 53 -3 52 49 3 50 3 75 -81 75 -82 47 4
46 3 -65 75 -66 74 31 13 c31 13 32 14 32 81 0 40 -5 73 -12 80 -8 8 -62 12
-175 12 l-163 0 0 -30z"/>
<path d="M1003 1506 c-27 -23 -28 -27 -28 -121 0 -94 1 -98 28 -121 27 -23 35
-24 162 -24 127 0 135 1 162 24 27 23 28 27 28 121 0 94 -1 98 -28 121 -27 23
-35 24 -162 24 -127 0 -135 -1 -162 -24z m267 -65 c13 -25 13 -87 0 -112 -9
-17 -22 -19 -105 -19 -106 0 -115 6 -115 75 0 69 9 75 115 75 83 0 96 -2 105
-19z"/>
<path d="M1441 1504 c-19 -24 -21 -40 -21 -150 l0 -124 40 0 40 0 0 111 c0 84
3 110 13 107 6 -3 43 -45 80 -94 103 -134 103 -134 141 -134 25 0 40 7 55 26
19 24 21 40 21 155 l0 129 -40 0 -40 0 0 -106 c0 -88 -2 -105 -15 -102 -8 2
-50 48 -93 103 -74 95 -79 100 -118 103 -35 3 -45 -1 -63 -24z"/>
<path d="M1886 1518 c5 -7 29 -40 55 -73 l48 -61 -64 -69 c-35 -39 -64 -72
-65 -75 0 -3 25 -3 55 -2 52 4 56 6 98 58 l45 54 46 -54 c43 -50 49 -54 96
-58 27 -1 50 -1 50 2 0 3 -27 36 -61 73 l-61 67 56 73 56 72 -45 3 c-41 3 -48
0 -73 -30 -15 -18 -36 -43 -47 -56 l-20 -23 -44 56 c-41 52 -47 55 -88 55 -33
0 -42 -3 -37 -12z"/>
<path d="M2420 1270 l0 -30 70 0 70 0 0 30 0 30 -70 0 -70 0 0 -30z"/>
</g>
</svg>
