<?xml version="1.0" standalone="no"?>
<!DOCTYPE svg PUBLIC "-//W3C//DTD SVG 20010904//EN"
 "http://www.w3.org/TR/2001/REC-SVG-20010904/DTD/svg10.dtd">
<svg version="1.0" xmlns="http://www.w3.org/2000/svg"
 width="225.000000pt" height="224.000000pt" viewBox="0 0 225.000000 224.000000"
 preserveAspectRatio="xMidYMid meet">

<g transform="translate(0.000000,224.000000) scale(0.100000,-0.100000)"
fill="#000000" stroke="none">
<path d="M881 2225 c-215 -48 -398 -149 -557 -309 -140 -140 -232 -292 -292
-486 -25 -81 -26 -95 -26 -310 0 -215 1 -229 26 -310 123 -396 424 -686 816
-786 91 -24 110 -25 302 -21 188 3 212 6 295 31 201 60 366 164 515 323 125
133 212 290 267 481 22 77 30 398 13 497 -36 201 -139 400 -290 559 -140 147
-313 254 -505 312 -83 26 -105 28 -295 30 -150 3 -222 -1 -269 -11z m494 -155
c169 -46 321 -134 446 -259 89 -89 147 -172 201 -287 67 -143 81 -215 82 -404
0 -189 -14 -259 -83 -405 -102 -218 -252 -371 -466 -476 -157 -77 -229 -92
-425 -93 -143 -1 -176 2 -250 22 -324 89 -581 327 -687 637 -121 354 -30 739
236 1006 127 126 283 217 446 258 115 29 126 29 280 26 106 -2 160 -8 220 -25z"/>
<path d="M1032 2034 l-23 -5 25 -30 c14 -16 30 -46 36 -67 13 -49 13 -695 0
-744 -25 -87 -106 -135 -246 -145 l-84 -6 0 -377 0 -378 58 -20 c31 -12 82
-28 113 -35 l55 -14 -18 36 c-15 29 -18 60 -18 183 0 170 10 207 61 233 18 10
59 20 91 23 l59 5 -3 101 c-3 100 -3 101 -28 101 -24 0 -25 -2 -28 -77 l-3
-78 -74 0 -75 0 0 75 c0 143 37 180 180 180 62 0 94 -5 117 -18 62 -33 63 -40
63 -417 0 -242 3 -340 11 -340 64 0 274 88 362 152 l48 35 -74 6 c-76 5 -137
29 -169 63 -43 48 -43 47 -48 799 l-5 720 -75 17 c-75 18 -265 31 -308 22z"/>
<path d="M740 1565 l0 -356 43 3 42 3 0 350 0 350 -42 3 -43 3 0 -356z"/>
<path d="M1670 1263 l0 -598 131 3 131 3 34 74 c80 173 102 403 56 589 -24 96
-81 228 -131 300 -40 58 -132 157 -182 197 l-39 31 0 -599z"/>
<path d="M443 1737 c-248 -269 -309 -696 -146 -1022 35 -69 115 -184 158 -225
l35 -34 0 662 c0 364 -2 662 -4 662 -2 0 -21 -19 -43 -43z"/>
<path d="M1086 574 c-3 -9 -6 -73 -6 -144 0 -101 3 -130 15 -140 12 -10 18
-10 30 0 12 10 15 41 15 156 l0 144 -24 0 c-13 0 -27 -7 -30 -16z"/>
</g>
</svg>
