<?xml version="1.0" standalone="no"?>
<!DOCTYPE svg PUBLIC "-//W3C//DTD SVG 20010904//EN"
 "http://www.w3.org/TR/2001/REC-SVG-20010904/DTD/svg10.dtd">
<svg version="1.0" xmlns="http://www.w3.org/2000/svg"
 width="800.000000pt" height="800.000000pt" viewBox="0 0 800.000000 800.000000"
 preserveAspectRatio="xMidYMid meet">

<g transform="translate(0.000000,800.000000) scale(0.100000,-0.100000)"
fill="#000000" stroke="none">
<path d="M1715 5594 c-292 -34 -498 -132 -678 -323 -109 -116 -181 -235 -229
-381 -53 -158 -53 -165 -53 -905 0 -617 2 -698 17 -767 87 -389 352 -676 733
-795 l90 -28 2833 -3 2832 -2 0 1122 c0 1217 0 1217 -55 1378 -56 165 -135
289 -266 416 -170 165 -372 258 -614 284 -83 9 -4535 12 -4610 4z m2215 -1359
l0 -755 -145 0 -145 0 0 755 0 755 145 0 145 0 0 -755z m-340 315 l0 -120
-160 0 -160 0 0 120 0 120 160 0 160 0 0 -120z m2693 -65 c179 -38 263 -117
274 -259 9 -112 -36 -203 -126 -253 l-48 -27 30 -21 c17 -11 42 -42 56 -70 23
-43 26 -62 26 -145 -1 -81 -4 -103 -27 -151 -48 -105 -123 -166 -253 -206 -92
-28 -358 -25 -437 4 -65 24 -143 75 -161 104 -10 17 -24 19 -124 19 l-112 0
-79 243 c-92 281 -74 286 -143 -40 l-42 -203 -134 0 c-147 0 -139 -4 -122 70
7 30 24 60 52 90 29 31 22 26 -23 -16 -123 -112 -283 -174 -449 -174 -208 1
-361 81 -433 228 -32 65 -33 70 -32 187 1 139 24 221 89 319 157 237 521 335
774 208 53 -26 131 -94 165 -142 9 -14 14 -19 10 -12 -3 7 -1 42 6 78 l12 64
142 0 141 0 80 -235 80 -235 16 67 c8 38 30 143 49 236 l35 167 101 0 c84 0
105 3 125 19 109 85 314 122 482 86z m-4181 -118 c31 -15 69 -42 83 -58 l25
-31 0 51 0 51 166 0 165 0 -3 -502 c-4 -494 -4 -504 -27 -573 -43 -130 -109
-208 -223 -260 -288 -132 -710 -14 -794 222 -7 21 -13 48 -14 61 l0 22 183 0
182 0 17 -30 c23 -40 76 -62 149 -61 130 0 180 58 196 223 l6 70 -54 -41 c-65
-49 -122 -70 -209 -78 -135 -11 -257 33 -351 127 -250 249 -147 704 186 823
39 13 74 17 155 15 91 -3 112 -7 162 -31z m1078 -142 l0 -154 -41 14 c-76 27
-158 14 -201 -32 -50 -53 -58 -102 -58 -348 l0 -225 -140 0 -140 0 0 445 0
446 138 -3 137 -3 6 -65 c3 -36 6 -60 7 -54 3 18 70 83 104 100 32 17 99 31
156 33 l32 1 0 -155z m410 -310 l0 -435 -160 0 -160 0 0 435 0 435 160 0 160
0 0 -435z"/>
<path d="M5978 4455 c-110 -30 -203 -96 -251 -178 -22 -37 -57 -136 -57 -159
0 -4 60 -8 134 -8 133 0 134 0 140 24 8 33 52 83 88 102 34 18 120 20 160 5
44 -17 68 -50 68 -97 0 -80 -53 -114 -182 -114 l-67 0 -11 -57 c-6 -32 -15
-73 -20 -90 l-8 -33 54 0 c105 0 154 -39 154 -123 0 -44 -4 -54 -38 -87 -61
-61 -174 -77 -239 -34 -35 23 -63 74 -63 117 l0 37 -141 0 -141 0 3 -82 c4
-94 26 -148 87 -211 87 -91 238 -127 440 -107 164 17 258 60 323 148 43 59 60
117 61 207 2 129 -46 199 -150 221 -53 11 -55 12 -27 18 93 21 118 32 155 63
59 51 83 104 82 183 -1 140 -66 213 -229 255 -70 18 -259 19 -325 0z"/>
<path d="M6045 4214 c-46 -24 -64 -44 -77 -86 l-11 -38 -87 0 -86 0 -27 -132
c-15 -73 -30 -143 -33 -155 -6 -22 -4 -23 65 -23 l71 0 0 -36 c0 -49 27 -102
61 -119 36 -19 120 -19 164 -1 37 16 75 67 75 103 0 35 -20 70 -47 82 -13 6
-55 14 -93 17 -47 5 -70 11 -70 20 0 11 21 122 35 180 4 19 14 22 94 27 51 3
102 12 120 21 58 30 53 108 -9 138 -43 22 -105 23 -145 2z"/>
<path d="M4487 4156 c-104 -28 -183 -136 -181 -251 1 -79 24 -122 84 -153 37
-19 56 -23 107 -19 103 8 186 73 213 168 15 50 12 136 -5 168 -18 36 -69 80
-101 86 -60 12 -72 12 -117 1z"/>
<path d="M5052 4110 c0 -14 2 -19 5 -12 2 6 2 18 0 25 -3 6 -5 1 -5 -13z"/>
<path d="M5052 3950 c0 -14 2 -19 5 -12 2 6 2 18 0 25 -3 6 -5 1 -5 -13z"/>
<path d="M5041 3894 c0 -11 3 -14 6 -6 3 7 2 16 -1 19 -3 4 -6 -2 -5 -13z"/>
<path d="M1911 4098 c-121 -59 -143 -240 -41 -332 46 -41 74 -51 150 -51 81 1
137 35 173 104 29 58 33 103 16 164 -13 47 -63 106 -106 123 -50 21 -141 18
-192 -8z"/>
</g>
</svg>
