<?xml version="1.0" standalone="no"?>
<!DOCTYPE svg PUBLIC "-//W3C//DTD SVG 20010904//EN"
 "http://www.w3.org/TR/2001/REC-SVG-20010904/DTD/svg10.dtd">
<svg version="1.0" xmlns="http://www.w3.org/2000/svg"
 width="300.000000pt" height="200.000000pt" viewBox="0 0 300.000000 200.000000"
 preserveAspectRatio="xMidYMid meet">

<g transform="translate(0.000000,200.000000) scale(0.100000,-0.100000)"
fill="#000000" stroke="none">
<path d="M213 1318 c4 -190 12 -250 37 -288 9 -12 16 -8 42 23 l31 39 -2 164
-3 164 129 0 c155 0 206 -14 268 -74 72 -68 93 -181 48 -255 -70 -114 -111
-141 -215 -141 -50 0 -71 6 -116 31 -43 24 -57 28 -63 17 -11 -19 -42 -56 -34
-40 3 6 -1 15 -10 18 -12 5 -13 9 -4 20 9 11 9 14 0 14 -7 0 -10 4 -6 9 3 5 0
13 -6 17 -8 5 -9 3 -4 -6 6 -9 4 -12 -6 -8 -10 4 -15 -1 -16 -14 -2 -16 1 -17
13 -8 9 8 14 9 14 2 0 -18 -20 -24 -35 -12 -12 10 -15 10 -15 -2 0 -14 11 -18
53 -19 9 0 16 -3 13 -7 -19 -34 78 -97 172 -113 82 -13 151 3 240 53 70 40 75
46 110 118 34 69 37 82 37 160 0 66 -5 96 -22 132 -30 66 -105 143 -172 175
-55 27 -60 28 -269 31 l-214 4 5 -204z"/>
<path d="M2634 1376 c-38 -38 -44 -77 -19 -126 17 -32 61 -60 95 -60 34 0 78
28 95 60 25 49 19 88 -19 126 -28 28 -42 34 -76 34 -34 0 -48 -6 -76 -34z
m137 -15 c31 -31 35 -53 18 -97 l-10 -28 -24 29 c-19 25 -21 31 -9 38 19 11
18 53 -2 61 -9 3 -29 6 -45 6 l-29 0 2 -72 c0 -40 3 -58 5 -40 5 42 31 42 62
1 27 -37 22 -44 -31 -44 -49 0 -88 39 -88 86 0 42 48 89 90 89 22 0 41 -9 61
-29z m-42 -10 c21 -13 5 -41 -24 -41 -18 0 -25 5 -25 18 0 31 21 41 49 23z"/>
<path d="M515 1169 c-17 -7 -16 -9 10 -8 55 2 78 -1 71 -8 -4 -5 -29 -9 -54
-9 -26 -1 -65 -4 -87 -7 l-40 -6 30 14 c17 7 34 11 39 7 5 -3 6 0 2 6 -9 15
-64 -5 -77 -29 -5 -10 -14 -19 -20 -19 -6 0 -7 5 -3 12 4 6 -5 3 -19 -8 -15
-10 -27 -23 -27 -28 0 -5 -7 -14 -16 -20 -13 -10 -12 -14 10 -34 15 -12 26
-17 26 -11 0 5 4 7 10 4 5 -3 30 6 55 20 44 26 60 43 30 32 -8 -4 -17 -2 -20
3 -4 6 3 10 14 10 11 0 23 5 26 11 4 5 21 8 38 5 l32 -6 -35 14 c-34 13 -35
13 -10 21 15 5 25 4 28 -3 2 -7 18 -6 50 4 60 18 75 17 37 -2 l-30 -14 28 5
c21 4 28 2 25 -7 -6 -17 -46 -22 -62 -9 -10 9 -15 8 -20 -5 -3 -8 -6 -17 -6
-19 0 -7 65 0 78 8 12 8 13 7 16 -12 1 -11 56 -55 56 -46 0 4 -10 16 -22 26
l-23 20 22 -11 c12 -5 27 -18 32 -28 9 -15 10 -15 11 0 0 9 -15 25 -32 37 -20
13 -27 21 -17 21 9 0 22 -7 29 -15 7 -8 18 -15 25 -15 21 0 27 32 10 49 -8 8
-15 11 -15 6 0 -6 -17 -11 -38 -12 -27 -2 -33 0 -22 7 13 8 12 10 -4 10 -15 0
-17 3 -9 11 8 8 17 7 34 -1 19 -10 22 -10 12 0 -6 7 -22 14 -35 16 -13 2 -41
8 -63 13 -47 12 -54 12 -80 0z m-45 -60 c0 -5 -4 -9 -10 -9 -5 0 -10 7 -10 16
0 8 5 12 10 9 6 -3 10 -10 10 -16z m-30 1 c0 -5 -4 -10 -10 -10 -5 0 -10 5
-10 10 0 6 5 10 10 10 6 0 10 -4 10 -10z m-34 -15 c-3 -10 2 -18 14 -23 17 -6
16 -9 -11 -24 -16 -10 -27 -13 -24 -8 3 6 1 10 -4 10 -6 0 -11 7 -11 16 0 14
-1 14 -16 0 -25 -26 -35 -18 -11 8 12 13 31 26 42 29 11 2 22 5 24 6 2 0 0 -6
-3 -14z m334 4 c0 -5 -9 -9 -19 -9 -11 0 -22 4 -25 9 -3 5 6 9 19 9 14 0 25
-4 25 -9z m-370 -53 c0 -3 -4 -8 -10 -11 -5 -3 -10 -1 -10 4 0 6 5 11 10 11 6
0 10 -2 10 -4z"/>
<path d="M380 1083 c0 -15 18 -35 23 -27 3 5 -1 15 -9 22 -8 7 -14 9 -14 5z"/>
<path d="M1087 1173 c-4 -3 -7 -100 -7 -215 l0 -208 135 0 c102 0 143 4 165
15 63 32 81 131 34 179 -15 14 -31 26 -36 26 -5 0 2 14 16 31 57 67 21 155
-70 170 -60 10 -228 11 -237 2z m241 -85 c17 -17 15 -44 -4 -62 -11 -12 -35
-16 -85 -16 l-69 0 0 45 0 45 73 0 c43 0 78 -5 85 -12z m3 -168 c13 -7 19 -21
19 -45 0 -45 -20 -55 -109 -55 l-71 0 0 55 0 55 71 0 c39 0 79 -5 90 -10z"/>
<path d="M2272 1008 c3 -189 8 -208 65 -245 41 -27 172 -25 210 3 55 40 63 72
63 252 l0 163 -41 -3 -41 -3 -2 -158 c-3 -183 -9 -197 -81 -197 -76 0 -79 6
-85 192 l-5 163 -43 3 -44 3 4 -173z"/>
<path d="M1520 1130 c0 -36 2 -40 25 -40 l25 0 0 -135 0 -135 -25 0 c-22 0
-25 -4 -25 -35 l0 -35 93 0 93 0 -4 35 c-3 29 -8 35 -28 35 l-24 0 0 134 0
135 27 3 c23 3 27 7 27 38 l0 35 -92 3 -92 3 0 -41z"/>
<path d="M1880 1148 c-31 -16 -54 -38 -75 -72 -26 -43 -30 -59 -30 -120 0 -59
5 -79 27 -117 32 -54 59 -74 124 -91 26 -7 56 -24 68 -38 55 -66 133 -100 191
-86 21 5 25 12 25 44 0 37 -1 38 -30 34 -28 -4 -120 31 -120 47 0 4 14 15 30
25 54 31 82 87 88 171 4 62 1 81 -18 120 -48 98 -175 136 -280 83z m151 -68
c55 -30 68 -173 20 -224 -45 -47 -121 -42 -156 10 -38 59 -27 165 22 204 28
22 82 26 114 10z"/>
<path d="M844 983 c3 -6 0 -15 -7 -20 -7 -4 -16 -16 -20 -26 -4 -9 -10 -16
-14 -15 -9 3 -13 -5 -13 -24 0 -6 9 -3 20 7 11 10 20 24 20 31 0 7 5 16 11 20
16 9 1 -36 -19 -58 -8 -10 -10 -18 -5 -18 14 0 30 20 36 45 4 15 5 13 6 -7 0
-16 6 -28 11 -28 13 0 13 12 -2 47 -6 15 -12 31 -12 35 -1 3 -5 10 -10 15 -5
4 -6 3 -2 -4z"/>
<path d="M231 924 c0 -11 3 -14 6 -6 3 7 2 16 -1 19 -3 4 -6 -2 -5 -13z"/>
<path d="M235 719 c-5 -109 -4 -164 3 -171 8 -8 60 -8 172 -2 89 5 164 6 166
2 8 -13 -38 -18 -186 -21 -135 -3 -134 -3 15 -2 88 1 176 6 195 12 19 6 27 11
17 12 -10 1 -20 7 -23 15 -4 10 -38 14 -142 15 -75 1 -139 5 -142 7 -3 3 -8
72 -11 152 l-5 147 -2 -137 c-3 -192 -10 -183 146 -182 l127 1 -95 -7 c-144
-12 -238 -12 -220 0 12 8 12 12 3 18 -10 6 -10 17 -3 42 12 43 13 260 1 260
-5 0 -12 -72 -16 -161z"/>
<path d="M270 740 c-3 -80 -4 -147 -2 -149 9 -17 12 25 10 150 l-3 144 -5
-145z"/>
<path d="M793 840 c0 -25 2 -35 4 -22 2 12 2 32 0 45 -2 12 -4 2 -4 -23z"/>
<path d="M223 835 c0 -22 2 -30 4 -17 2 12 2 30 0 40 -3 9 -5 -1 -4 -23z"/>
<path d="M792 777 c-12 -13 -22 -27 -22 -32 0 -5 7 0 15 11 8 10 15 15 15 9 1
-5 5 -1 10 10 8 17 9 15 7 -10 -1 -16 -6 -28 -11 -27 -5 2 -14 -4 -19 -13 -8
-14 -11 -15 -19 -4 -8 11 -9 11 -5 -1 2 -8 10 -14 16 -12 7 1 10 -2 7 -7 -11
-17 6 -41 25 -38 19 3 58 47 43 47 -5 0 -3 5 4 12 14 14 16 42 3 34 -5 -4 -7
3 -4 14 3 11 0 20 -6 20 -7 0 -10 -16 -8 -43 2 -27 -2 -48 -10 -56 -10 -9 -13
-9 -14 1 0 7 -4 4 -8 -7 -7 -17 -8 -16 -13 9 -5 22 -2 27 11 23 14 -3 18 4 20
39 2 50 -6 54 -37 21z"/>
<path d="M740 678 c0 -19 -2 -20 -10 -8 -5 8 -10 10 -10 4 0 -16 -44 -43 -103
-64 l-50 -18 54 1 c30 0 46 2 35 5 -17 4 -16 5 5 18 13 7 32 17 42 20 9 3 17
11 17 16 0 5 5 6 10 3 17 -10 11 -25 -9 -25 -25 0 -37 -31 -16 -42 8 -5 13
-13 10 -18 -3 -4 1 -7 9 -6 23 3 56 37 49 49 -4 6 0 8 10 4 12 -4 14 -2 10 10
-4 10 -2 14 5 9 6 -3 14 -1 18 5 4 7 3 9 -4 5 -6 -3 -20 7 -32 24 -25 36 -40
38 -40 8z m16 -14 c-4 -12 -2 -15 9 -11 8 4 17 2 19 -2 3 -5 -3 -8 -14 -7 -11
0 -20 4 -20 9 0 4 0 12 0 17 0 6 3 10 6 10 3 0 3 -7 0 -16z m10 -51 c-2 -9 -9
-19 -16 -21 -7 -3 -10 0 -7 5 3 5 0 10 -8 10 -18 0 -19 -9 -2 -27 10 -12 9
-12 -5 -1 -24 18 -23 30 5 41 32 13 36 12 33 -7z"/>
<path d="M607 584 c-8 -8 1 -24 14 -24 5 0 9 7 9 15 0 15 -12 20 -23 9z"/>
<path d="M655 570 c3 -5 2 -10 -2 -10 -5 0 -9 -10 -10 -22 0 -13 1 -17 4 -10
3 6 9 10 14 7 5 -4 17 -1 26 5 15 9 14 10 -7 5 -23 -6 -23 -5 -7 8 23 19 22
27 -4 27 -11 0 -17 -4 -14 -10z"/>
</g>
</svg>
